<svg id="doc1" width="100%" height="100%" viewBox="0 0 45 45" fill="none" xmlns="http://www.w3.org/2000/svg">
<path d="M26.5162 9.64286C26.5162 11.8617 24.7172 13.6607 22.4983 13.6607C20.2795 13.6607 18.4805 11.8617 18.4805 9.64286C18.4805 7.42401 20.2795 5.625 22.4983 5.625C24.7172 5.625 26.5162 7.42401 26.5162 9.64286Z" fill="#006BDE"/>
<path d="M32.1417 3.21436H12.856C12.856 4.58058 11.8115 5.62507 10.4453 5.62507V39.3751C11.8115 39.3751 12.856 40.4196 12.856 41.7858H32.1417C32.1417 40.4196 33.1862 39.3751 34.5525 39.3751V5.62507C33.1862 5.62507 32.1417 4.58058 32.1417 3.21436ZM22.4989 4.01793C25.6327 4.01793 28.1239 6.50908 28.1239 9.64293C28.1239 11.491 27.2399 13.1786 25.7132 14.2234V21.5356L22.4989 19.3662L19.2846 21.5356V14.2234C16.713 12.4554 16.0703 8.91979 17.9184 6.42864C18.9632 4.90193 20.6508 4.01793 22.4989 4.01793ZM16.0703 24.1072H28.9275V25.7144H16.0703V24.1072ZM20.0882 39.3751H15.2667V37.7679H20.0882V39.3751ZM29.731 39.3751H24.9096V37.7679H29.731V39.3751ZM32.9453 35.3572H12.0525V33.7501H32.9453V35.3572ZM32.9453 32.1429H12.0525V30.5358H32.9453V32.1429ZM32.9453 28.9286H12.0525V27.3215H32.9453V28.9286Z" fill="#006BDE"/>
<path d="M20.8945 15.027V18.5626L22.5017 17.5177L24.1088 18.5626V15.027C23.0643 15.3483 21.939 15.3483 20.8945 15.027Z" fill="#006BDE"/>
<path d="M7.23047 0V45H37.7662V0H7.23047ZM36.159 40.9821H34.5519C34.0697 40.9821 33.7483 41.3035 33.7483 41.7857V43.3929H11.2483V41.7857C11.2483 41.3035 10.927 40.9821 10.4448 40.9821H8.83761V4.01786H10.4448C10.927 4.01786 11.2483 3.69651 11.2483 3.21429V1.60714H33.7483V3.21429C33.7483 3.69651 34.0697 4.01786 34.5519 4.01786H36.159V40.9821Z" fill="#006BDE"/>
</svg>
