<svg id="doc2" width="100%" height="100%" viewBox="0 0 45 45" fill="none" xmlns="http://www.w3.org/2000/svg">
<path d="M29.002 13.1836C27.3058 13.1836 25.9258 11.8036 25.9258 10.1074V0H10.1934C7.5279 0 5.35938 2.16853 5.35938 4.83398V40.166C5.35938 42.8315 7.5279 45 10.1934 45H34.8027C37.4682 45 39.6367 42.8315 39.6367 40.166V13.1836H29.002ZM12.5664 31.6406H18.9578C19.6859 31.6406 20.2762 32.2309 20.2762 32.959C20.2762 33.6871 19.6859 34.2773 18.9578 34.2773H12.5664C11.8383 34.2773 11.248 33.6871 11.248 32.959C11.248 32.2309 11.8383 31.6406 12.5664 31.6406ZM11.248 25.9277C11.248 25.1996 11.8383 24.6094 12.5664 24.6094H31.9023C32.6304 24.6094 33.2207 25.1996 33.2207 25.9277C33.2207 26.6558 32.6304 27.2461 31.9023 27.2461H12.5664C11.8383 27.2461 11.248 26.6558 11.248 25.9277ZM31.9023 17.5781C32.6304 17.5781 33.2207 18.1684 33.2207 18.8965C33.2207 19.6246 32.6304 20.2148 31.9023 20.2148H12.5664C11.8383 20.2148 11.248 19.6246 11.248 18.8965C11.248 18.1684 11.8383 17.5781 12.5664 17.5781H31.9023Z" fill="#006BDE"/>
<path d="M28.5625 10.1075C28.5625 10.3498 28.7596 10.547 29.002 10.547H39.0491C38.8079 10.1017 38.4977 9.69277 38.1249 9.34007L29.6502 1.32251C29.3213 1.01138 28.955 0.751836 28.5626 0.546875V10.1075H28.5625Z" fill="#006BDE"/>
</svg>
