<svg id="doc3" width="100%" height="100%" viewBox="0 0 47 47" fill="none" xmlns="http://www.w3.org/2000/svg">
<path d="M32.7426 37.3482C31.9492 37.3555 31.1984 36.9888 30.7173 36.3577C30.5559 36.3769 30.3928 36.3798 30.2305 36.3671V45.741L32.2447 44.2305C32.543 44.0063 32.9536 44.0063 33.252 44.2305L35.2662 45.741V36.3671C35.0986 36.381 34.9297 36.3777 34.7625 36.3577C34.2822 36.9871 33.5339 37.3539 32.7426 37.3482Z" fill="#006BDE"/>
<path d="M0 39.0268C0 40.4173 1.12738 41.5446 2.51786 41.5446H28.5558V38.1875H0L0 39.0268Z" fill="#006BDE"/>
<path d="M36.3492 30.6506C36.1255 30.5711 35.9456 30.4002 35.855 30.181C35.764 29.9613 35.7702 29.7138 35.8726 29.4991C36.0312 29.1663 35.964 28.7696 35.7042 28.5082C35.444 28.2467 35.0477 28.177 34.7141 28.334C34.4998 28.4364 34.2518 28.443 34.0322 28.3524C33.8121 28.2615 33.6416 28.0816 33.5617 27.8574C33.4392 27.5099 33.1105 27.2771 32.7421 27.2771C32.3733 27.2771 32.0446 27.5099 31.9221 27.8574C31.8426 28.0816 31.6717 28.2615 31.452 28.3524C31.232 28.443 30.984 28.4364 30.7697 28.334C30.4357 28.1766 30.039 28.2467 29.7792 28.5082C29.519 28.77 29.4518 29.1671 29.6116 29.4999C29.7132 29.7142 29.7198 29.9617 29.6288 30.181C29.5382 30.4002 29.3591 30.5707 29.1354 30.6506C28.7875 30.7744 28.5547 31.1039 28.5547 31.4731C28.5547 31.8424 28.7875 32.1718 29.1354 32.2956C29.3591 32.3755 29.5386 32.546 29.6292 32.7657C29.7202 32.9849 29.7136 33.2328 29.6116 33.4472C29.4526 33.7799 29.5198 34.1766 29.78 34.4381C30.0398 34.6995 30.4361 34.7692 30.7697 34.6122C30.984 34.5098 31.232 34.5032 31.452 34.5938C31.6717 34.6848 31.8426 34.8647 31.9221 35.0889C32.0446 35.4364 32.3733 35.6691 32.7421 35.6691C33.1105 35.6691 33.4392 35.4364 33.5617 35.0889C33.6416 34.8647 33.8121 34.6848 34.0322 34.5938C34.2518 34.5032 34.4998 34.5098 34.7141 34.6122C35.0477 34.7692 35.444 34.6995 35.7042 34.4381C35.964 34.1766 36.0312 33.7799 35.8726 33.4472C35.7702 33.2324 35.764 32.9849 35.855 32.7652C35.9456 32.546 36.1255 32.3751 36.3492 32.2956C36.6963 32.171 36.9283 31.8419 36.9283 31.4731C36.9283 31.1043 36.6963 30.7752 36.3492 30.6506Z" fill="#006BDE"/>
<path d="M6.71484 3.77677V36.5089H28.5564V35.5766C28.0207 35.0246 27.7662 34.2587 27.865 33.496C27.2409 33.0104 26.8761 32.2637 26.8761 31.4732C26.8761 30.6827 27.2409 29.936 27.865 29.4504C27.7658 28.6668 28.0343 27.8812 28.592 27.3219C29.1498 26.7625 29.9345 26.492 30.7185 26.5887C31.2029 25.9637 31.9487 25.5982 32.7393 25.5982C33.5298 25.5982 34.276 25.9637 34.7604 26.5887C35.5444 26.4916 36.3292 26.7621 36.8873 27.3214C37.4451 27.8812 37.7131 28.6668 37.6139 29.4504C38.2381 29.936 38.6028 30.6827 38.6028 31.4732C38.6028 32.2637 38.2381 33.0104 37.6139 33.496C37.7111 34.2476 37.4643 35.0029 36.9427 35.552V41.3901C37.207 41.4881 37.4865 41.5401 37.7684 41.5446C39.1589 41.5446 40.2863 40.4173 40.2863 39.0268V3.77677C40.2883 3.51531 40.3146 3.25467 40.3654 2.99772C40.3801 2.91822 40.4047 2.84282 40.424 2.76454C40.4654 2.59365 40.5178 2.42563 40.5801 2.26089C40.6129 2.17729 40.6481 2.0982 40.6858 2.01746C40.7576 1.86461 40.8379 1.71626 40.9276 1.57282C40.9711 1.50234 41.0112 1.43103 41.0608 1.36382C41.0846 1.3294 41.1022 1.2917 41.1272 1.25891H9.2327C7.84222 1.25891 6.71484 2.38629 6.71484 3.77677ZM36.0899 21.4018H21.822V19.7232H36.0899V21.4018ZM36.0899 17.2053H16.7863V15.5268H36.0899V17.2053ZM26.0184 6.29463H29.3756V7.9732H26.0184V6.29463ZM17.6256 6.29463H24.3398V7.9732H17.6256V6.29463ZM15.1077 10.4911H31.8934V12.1696H15.1077V10.4911ZM10.9113 15.5268H15.1077V17.2053H10.9113V15.5268ZM10.9113 19.7232H20.1434V21.4018H10.9113V19.7232ZM10.9113 23.9196H27.697V25.5982H10.9113V23.9196ZM10.9113 28.1161H25.1791V29.7946H10.9113V28.1161Z" fill="#006BDE"/>
<path d="M44.4827 1.25891C43.0922 1.25891 41.9648 2.38629 41.9648 3.77677V4.61605H47.0006V3.77677C47.0006 2.38629 45.8732 1.25891 44.4827 1.25891Z" fill="#006BDE"/>
</svg>
