<svg width="24" height="24" viewBox="0 0 24 24" fill="none" xmlns="http://www.w3.org/2000/svg">
<path d="M13.1 18.75H2.1C1.80826 18.75 1.52847 18.8685 1.32218 19.0795C1.11589 19.2905 1 19.5766 1 19.875C1 20.1734 1.11589 20.4595 1.32218 20.6705C1.52847 20.8815 1.80826 21 2.1 21H13.1C13.3917 21 13.6715 20.8815 13.8778 20.6705C14.0841 20.4595 14.2 20.1734 14.2 19.875C14.2 19.5766 14.0841 19.2905 13.8778 19.0795C13.6715 18.8685 13.3917 18.75 13.1 18.75ZM2.1 7.5H10.9C11.1917 7.5 11.4715 7.38147 11.6778 7.1705C11.8841 6.95952 12 6.67337 12 6.375C12 6.07663 11.8841 5.79048 11.6778 5.5795C11.4715 5.36853 11.1917 5.25 10.9 5.25H2.1C1.80826 5.25 1.52847 5.36853 1.32218 5.5795C1.11589 5.79048 1 6.07663 1 6.375C1 6.67337 1.11589 6.95952 1.32218 7.1705C1.52847 7.38147 1.80826 7.5 2.1 7.5ZM2.1 12H10.9C11.1917 12 11.4715 11.8815 11.6778 11.6705C11.8841 11.4595 12 11.1734 12 10.875C12 10.5766 11.8841 10.2905 11.6778 10.0795C11.4715 9.86853 11.1917 9.75 10.9 9.75H2.1C1.80826 9.75 1.52847 9.86853 1.32218 10.0795C1.11589 10.2905 1 10.5766 1 10.875C1 11.1734 1.11589 11.4595 1.32218 11.6705C1.52847 11.8815 1.80826 12 2.1 12ZM21.9 14.25H2.1C1.80826 14.25 1.52847 14.3685 1.32218 14.5795C1.11589 14.7905 1 15.0766 1 15.375C1 15.6734 1.11589 15.9595 1.32218 16.1705C1.52847 16.3815 1.80826 16.5 2.1 16.5H21.9C22.1917 16.5 22.4715 16.3815 22.6778 16.1705C22.8841 15.9595 23 15.6734 23 15.375C23 15.0766 22.8841 14.7905 22.6778 14.5795C22.4715 14.3685 22.1917 14.25 21.9 14.25ZM21.9 3H15.3C15.0083 3 14.7285 3.11853 14.5222 3.32951C14.3159 3.54048 14.2 3.82663 14.2 4.125V10.875C14.2 11.1734 14.3159 11.4595 14.5222 11.6705C14.7285 11.8815 15.0083 12 15.3 12H21.9C22.1917 12 22.4715 11.8815 22.6778 11.6705C22.8841 11.4595 23 11.1734 23 10.875V4.125C23 3.82663 22.8841 3.54048 22.6778 3.32951C22.4715 3.11853 22.1917 3 21.9 3ZM20.8 9.75H16.4V5.25H20.8V9.75Z" fill="black"/>
</svg>
