<svg width="24" height="24" viewBox="0 0 24 24" fill="none" xmlns="http://www.w3.org/2000/svg">
<path d="M20.9793 4.0028C19.812 2.85251 18.2645 2.15315 16.618 2.0319C14.9716 1.91065 13.3357 2.37556 12.0078 3.34209C10.6089 2.31704 8.8677 1.85224 7.13488 2.04128C5.40205 2.23031 3.80629 3.05915 2.66894 4.36087C1.53159 5.66259 0.937129 7.34051 1.00527 9.05674C1.07342 10.773 1.7991 12.4 3.03619 13.6102L11.2271 21.6796C11.3294 21.7811 11.451 21.8617 11.5849 21.9167C11.7189 21.9717 11.8626 22 12.0078 22C12.1529 22 12.2966 21.9717 12.4306 21.9167C12.5646 21.8617 12.6862 21.7811 12.7884 21.6796L20.9793 13.6102C21.6199 12.9795 22.1281 12.2307 22.4748 11.4064C22.8215 10.5822 23 9.69873 23 8.80652C23 7.9143 22.8215 7.03083 22.4748 6.20659C22.1281 5.38235 21.6199 4.63349 20.9793 4.0028ZM19.4291 12.083L12.0078 19.3834L4.58642 12.083C3.93244 11.436 3.48694 10.6132 3.30581 9.7178C3.12468 8.82237 3.21598 7.89417 3.56827 7.04966C3.92056 6.20515 4.51814 5.48193 5.28606 4.97072C6.05397 4.45951 6.95802 4.18308 7.88479 4.1761C9.12291 4.17909 10.3092 4.66604 11.1832 5.53002C11.2854 5.63155 11.407 5.71212 11.541 5.76711C11.6749 5.8221 11.8186 5.85041 11.9638 5.85041C12.1089 5.85041 12.2526 5.8221 12.3866 5.76711C12.5206 5.71212 12.6422 5.63155 12.7444 5.53002C13.6441 4.76195 14.8064 4.35931 15.9961 4.40359C17.1858 4.44787 18.3139 4.93576 19.1522 5.76852C19.9906 6.60128 20.4764 7.7167 20.5115 8.88904C20.5466 10.0614 20.1282 11.2031 19.3411 12.083H19.4291Z" fill="black"/>
</svg>
