<svg width="19" height="19" viewBox="0 0 19 19" fill="none" xmlns="http://www.w3.org/2000/svg">
<path d="M9.50123 0C4.91802 0 1.20312 3.71489 1.20312 8.2981C1.20312 11.4335 2.94108 14.1586 5.50486 15.5706L5.40728 19L9.32265 16.5869C9.38174 16.5882 9.44082 16.5962 9.50123 16.5962C14.0844 16.5962 17.7993 12.8813 17.7993 8.2981C17.7993 3.71489 14.0844 0 9.50123 0ZM10.5581 13.1336H8.43177V6.2893H10.5581V13.1336ZM9.48065 5.45086C8.80817 5.45086 8.36074 4.97421 8.37534 4.38604C8.3614 3.77066 8.80817 3.30796 9.49459 3.30796C10.1803 3.30796 10.6158 3.77066 10.6298 4.38604C10.6291 4.97421 10.179 5.45086 9.48065 5.45086Z" fill="#777777"/>
</svg>
