<svg width="24" height="24" viewBox="0 0 24 24" fill="none" xmlns="http://www.w3.org/2000/svg">
<path d="M19.2344 7.5C17.1675 7.5 15.4844 5.81799 15.4844 3.75C15.4844 1.68201 17.1675 0 19.2344 0C21.3015 0 22.9844 1.68201 22.9844 3.75C22.9844 5.81799 21.3015 7.5 19.2344 7.5ZM19.2344 1.5C17.9944 1.5 16.9844 2.50891 16.9844 3.75C16.9844 4.99109 17.9944 6 19.2344 6C20.4744 6 21.4844 4.99109 21.4844 3.75C21.4844 2.50891 20.4744 1.5 19.2344 1.5Z" fill="#757575"/>
<path d="M19.2344 24C17.1675 24 15.4844 22.318 15.4844 20.25C15.4844 18.182 17.1675 16.5 19.2344 16.5C21.3015 16.5 22.9844 18.182 22.9844 20.25C22.9844 22.318 21.3015 24 19.2344 24ZM19.2344 18C17.9944 18 16.9844 19.0089 16.9844 20.25C16.9844 21.4911 17.9944 22.5 19.2344 22.5C20.4744 22.5 21.4844 21.4911 21.4844 20.25C21.4844 19.0089 20.4744 18 19.2344 18Z" fill="#757575"/>
<path d="M4.73438 15.75C2.6673 15.75 0.984375 14.068 0.984375 12C0.984375 9.93201 2.6673 8.25 4.73438 8.25C6.80145 8.25 8.48438 9.93201 8.48438 12C8.48438 14.068 6.80145 15.75 4.73438 15.75ZM4.73438 9.75C3.49438 9.75 2.48438 10.7589 2.48438 12C2.48438 13.2411 3.49438 14.25 4.73438 14.25C5.97437 14.25 6.98438 13.2411 6.98438 12C6.98438 10.7589 5.97437 9.75 4.73438 9.75Z" fill="#757575"/>
<path d="M7.34635 11.2701C7.08524 11.2701 6.83127 11.1341 6.69431 10.8922C6.48923 10.5322 6.61429 10.0741 6.97428 9.8692L16.2533 4.5791C16.6122 4.37219 17.0713 4.49817 17.2752 4.85926C17.4803 5.21924 17.3553 5.67719 16.9953 5.88227L7.71622 11.1722C7.59922 11.2381 7.47233 11.2701 7.34635 11.2701Z" fill="#757575"/>
<path d="M16.6233 19.5197C16.4973 19.5197 16.3703 19.4876 16.2533 19.4208L6.9742 14.1307C6.61421 13.9258 6.48933 13.4677 6.69423 13.1077C6.89821 12.7468 7.35634 12.6217 7.71632 12.8277L16.9952 18.1176C17.3552 18.3227 17.4802 18.7807 17.2753 19.1407C17.1373 19.3836 16.8833 19.5197 16.6233 19.5197Z" fill="#757575"/>
</svg>
