<svg width="24" height="24" viewBox="0 0 24 24" fill="none" xmlns="http://www.w3.org/2000/svg">
<path d="M8.22222 19.6842C7.89259 19.6842 7.57035 19.7814 7.29627 19.9636C7.02219 20.1458 6.80857 20.4047 6.68242 20.7077C6.55628 21.0106 6.52327 21.3439 6.58758 21.6655C6.65189 21.9871 6.81062 22.2826 7.04371 22.5144C7.2768 22.7463 7.57377 22.9042 7.89707 22.9681C8.22037 23.0321 8.55548 22.9993 8.86003 22.8738C9.16457 22.7483 9.42487 22.5358 9.60801 22.2632C9.79114 21.9905 9.88889 21.67 9.88889 21.3421C9.88889 20.9024 9.71329 20.4807 9.40073 20.1698C9.08817 19.8589 8.66425 19.6842 8.22222 19.6842ZM19.8889 16.3684H6.55556C6.26087 16.3684 5.97826 16.252 5.76988 16.0447C5.56151 15.8374 5.44444 15.5563 5.44444 15.2632C5.44444 14.97 5.56151 14.6889 5.76988 14.4816C5.97826 14.2743 6.26087 14.1579 6.55556 14.1579H15.9902C16.714 14.1556 17.4176 13.92 17.9955 13.4864C18.5733 13.0529 18.9944 12.4447 19.1956 11.7531L20.9571 5.61963C21.0044 5.45513 21.0126 5.28197 20.9812 5.11377C20.9497 4.94558 20.8795 4.78694 20.7759 4.65035C20.6724 4.51375 20.5384 4.40293 20.3844 4.32661C20.2305 4.25029 20.0609 4.21055 19.8889 4.21053H6.26563C6.03562 3.56655 5.6116 3.00878 5.05136 2.61322C4.49112 2.21765 3.8219 2.00352 3.13488 2H2.11111C1.81643 2 1.53381 2.11645 1.32544 2.32372C1.11706 2.531 1 2.81213 1 3.10526C1 3.3984 1.11706 3.67952 1.32544 3.8868C1.53381 4.09408 1.81643 4.21053 2.11111 4.21053H3.13488C3.37608 4.21136 3.61052 4.2899 3.8031 4.43438C3.99567 4.57885 4.13602 4.78149 4.20312 5.01195L4.37592 5.61403L4.37619 5.61963L6.19911 11.9663C5.35085 12.057 4.56986 12.4679 4.01696 13.1142C3.46406 13.7606 3.18135 14.5932 3.22703 15.4406C3.27271 16.2881 3.64331 17.0859 4.26251 17.6697C4.88172 18.2535 5.7024 18.5789 6.55556 18.5789H19.8889C20.1836 18.5789 20.4662 18.4625 20.6746 18.2552C20.8829 18.0479 21 17.7668 21 17.4737C21 17.1805 20.8829 16.8994 20.6746 16.6921C20.4662 16.4849 20.1836 16.3684 19.8889 16.3684ZM18.4159 6.42105L17.059 11.1454C16.992 11.3761 16.8516 11.5789 16.6589 11.7235C16.4662 11.8681 16.2316 11.9466 15.9902 11.9474H8.50488L8.22161 10.9612L6.91824 6.42105H18.4159ZM17.1111 19.6842C16.7815 19.6842 16.4592 19.7814 16.1852 19.9636C15.9111 20.1458 15.6975 20.4047 15.5713 20.7077C15.4452 21.0106 15.4122 21.3439 15.4765 21.6655C15.5408 21.9871 15.6995 22.2826 15.9326 22.5144C16.1657 22.7463 16.4627 22.9042 16.786 22.9681C17.1093 23.0321 17.4444 22.9993 17.7489 22.8738C18.0535 22.7483 18.3138 22.5358 18.4969 22.2632C18.68 21.9905 18.7778 21.67 18.7778 21.3421C18.7778 20.9024 18.6022 20.4807 18.2896 20.1698C17.9771 19.8589 17.5531 19.6842 17.1111 19.6842Z" fill="black"/>
</svg>
