<svg width="24" height="24" viewBox="0 0 24 24" fill="none" xmlns="http://www.w3.org/2000/svg">
<path d="M16.0848 12.7803C17.1685 11.9323 17.9596 10.7694 18.3478 9.45351C18.7361 8.13759 18.7023 6.73403 18.2512 5.4381C17.8 4.14217 16.9539 3.01831 15.8306 2.22288C14.7073 1.42745 13.3626 1 11.9836 1C10.6046 1 9.25995 1.42745 8.13662 2.22288C7.0133 3.01831 6.1672 4.14217 5.71604 5.4381C5.26488 6.73403 5.23109 8.13759 5.61937 9.45351C6.00765 10.7694 6.7987 11.9323 7.88245 12.7803C6.02541 13.5202 4.40508 14.7474 3.1942 16.3311C1.98331 17.9148 1.22727 19.7956 1.00667 21.7731C0.990699 21.9174 1.00348 22.0635 1.04428 22.203C1.08508 22.3424 1.1531 22.4725 1.24446 22.5859C1.42896 22.8147 1.69732 22.9613 1.9905 22.9934C2.28368 23.0254 2.57766 22.9404 2.80778 22.7569C3.03789 22.5734 3.18528 22.3065 3.21753 22.0149C3.46027 19.8659 4.49064 17.8811 6.11179 16.4398C7.73294 14.9985 9.83122 14.2018 12.0057 14.2018C14.1802 14.2018 16.2785 14.9985 17.8996 16.4398C19.5208 17.8811 20.5512 19.8659 20.7939 22.0149C20.8239 22.2851 20.9536 22.5345 21.1577 22.7152C21.3618 22.8959 21.626 22.995 21.8993 22.9934H22.0209C22.3107 22.9602 22.5755 22.8145 22.7578 22.588C22.94 22.3615 23.0248 22.0725 22.9937 21.7841C22.7721 19.801 22.0119 17.9154 20.7948 16.3292C19.5777 14.7431 17.9495 13.5163 16.0848 12.7803ZM11.9836 11.9997C11.1091 11.9997 10.2542 11.7418 9.52703 11.2586C8.79988 10.7754 8.23313 10.0886 7.89846 9.28508C7.56379 8.48154 7.47623 7.59736 7.64684 6.74434C7.81745 5.89131 8.23858 5.10776 8.85697 4.49276C9.47536 3.87776 10.2632 3.45895 11.121 3.28927C11.9787 3.11959 12.8678 3.20668 13.6757 3.53951C14.4837 3.87234 15.1743 4.43598 15.6601 5.15914C16.146 5.8823 16.4053 6.7325 16.4053 7.60224C16.4053 8.76852 15.9395 9.88703 15.1102 10.7117C14.281 11.5364 13.1563 11.9997 11.9836 11.9997Z" fill="black"/>
</svg>
