<svg width="26" height="26" viewBox="0 0 26 26" fill="none" xmlns="http://www.w3.org/2000/svg">
<path d="M18.8 19.8C17.6345 19.8 16.7 20.7345 16.7 21.9C16.7 22.457 16.9212 22.9911 17.3151 23.3849C17.7089 23.7787 18.243 24 18.8 24C19.357 24 19.8911 23.7787 20.2849 23.3849C20.6787 22.9911 20.9 22.457 20.9 21.9C20.9 21.343 20.6787 20.8089 20.2849 20.4151C19.8911 20.0212 19.357 19.8 18.8 19.8ZM2 3V5.1H4.1L7.88 13.0695L6.452 15.642C6.2945 15.936 6.2 16.2825 6.2 16.65C6.2 17.207 6.42125 17.7411 6.81508 18.1349C7.2089 18.5287 7.74305 18.75 8.3 18.75H20.9V16.65H8.741C8.67138 16.65 8.60461 16.6223 8.55538 16.5731C8.50616 16.5239 8.4785 16.4571 8.4785 16.3875C8.4785 16.335 8.489 16.293 8.51 16.2615L9.455 14.55H17.2775C18.065 14.55 18.758 14.109 19.115 13.4685L22.874 6.675C22.9475 6.507 23 6.3285 23 6.15C23 5.87152 22.8894 5.60445 22.6925 5.40754C22.4955 5.21062 22.2285 5.1 21.95 5.1H6.4205L5.4335 3H2ZM8.3 19.8C7.1345 19.8 6.2 20.7345 6.2 21.9C6.2 22.457 6.42125 22.9911 6.81508 23.3849C7.2089 23.7787 7.74305 24 8.3 24C8.85695 24 9.3911 23.7787 9.78492 23.3849C10.1787 22.9911 10.4 22.457 10.4 21.9C10.4 21.343 10.1787 20.8089 9.78492 20.4151C9.3911 20.0212 8.85695 19.8 8.3 19.8Z" fill="#006BDE"/>
</svg>
