<svg width="26" height="24" viewBox="0 0 26 24" fill="none" xmlns="http://www.w3.org/2000/svg">
<path fill-rule="evenodd" clip-rule="evenodd" d="M3.56651 1.35091C5.15365 -0.200698 7.76222 0.0720596 9.09501 1.82246L10.7296 3.96924C11.8204 5.40176 11.7231 7.40827 10.4299 8.67253L10.128 8.96771C10.1155 9.00906 10.0924 9.11937 10.124 9.31914C10.2031 9.82081 10.6348 10.9135 12.4853 12.7226C14.3331 14.529 15.4573 14.9594 15.9888 15.0396C16.2206 15.0745 16.3451 15.0444 16.3873 15.0308L16.9115 14.5183C18.0554 13.4 19.8054 13.1945 21.2146 13.9477L23.6912 15.2714C25.8275 16.4132 26.3831 19.2901 24.6168 21.0169L22.7753 22.8171C22.1904 23.3889 21.4056 23.8638 20.4501 23.9514C18.104 24.1664 12.6301 23.8927 6.87713 18.2685C1.50654 13.0182 0.470606 8.43356 0.339468 6.16487L1.3378 6.10716L0.339468 6.16487C0.272287 5.0026 0.831176 4.025 1.53184 3.34002L3.56651 1.35091ZM7.50377 3.03405C6.85849 2.18658 5.64473 2.11616 4.96462 2.78104L2.92996 4.77015C2.50642 5.1842 2.31197 5.63129 2.33614 6.04946C2.43871 7.82405 3.26343 11.9388 8.27525 16.8384C13.5324 21.9779 18.3892 22.1319 20.2676 21.9598C20.6483 21.9249 21.0256 21.7307 21.3772 21.387L23.2186 19.5868C23.9383 18.8832 23.7931 17.5936 22.7485 17.0353L20.2719 15.7116C19.5926 15.3485 18.7981 15.4709 18.3096 15.9484L17.7192 16.5256L17.0444 15.8353C17.7192 16.5256 17.7183 16.5266 17.7173 16.5275L17.7153 16.5294L17.7112 16.5333L17.7026 16.5415L17.683 16.5594C17.669 16.572 17.653 16.5857 17.635 16.6004C17.599 16.6297 17.555 16.6627 17.5024 16.6973C17.397 16.7667 17.2585 16.8418 17.085 16.9054C16.7313 17.0349 16.2663 17.104 15.6906 17.0172C14.5627 16.8471 13.07 16.0911 11.0872 14.1527C9.10714 12.217 8.32521 10.7514 8.14841 9.63087C8.05781 9.05673 8.12988 8.59077 8.26584 8.23597C8.33238 8.06234 8.4108 7.92426 8.4828 7.81977C8.51871 7.76766 8.55292 7.72406 8.58314 7.6886C8.59826 7.67087 8.61239 7.65514 8.62528 7.64138L8.64366 7.62219L8.65209 7.61368L8.65611 7.60969L8.65806 7.60776C8.65902 7.60682 8.65998 7.60588 9.3469 8.30851L8.65999 7.60587L9.03179 7.2424C9.57038 6.71586 9.64581 5.84726 9.13838 5.18084L7.50377 3.03405Z" fill="white"/>
</svg>
