<?xml version="1.0" encoding="utf-8"?><svg xmlns="http://www.w3.org/2000/svg" xmlns:xlink="http://www.w3.org/1999/xlink"><symbol fill="none" viewBox="0 0 109 109" id="b1" xmlns="http://www.w3.org/2000/svg"><path d="M63.33 97.237c-.392 0-.766-.155-1.042-.432L17.792 52.31a1.473 1.473 0 01-.414-1.272l5.135-32.515a1.473 1.473 0 011.226-1.226l32.514-5.135a1.473 1.473 0 011.271.414l44.496 44.496a1.473 1.473 0 010 2.083l-37.65 37.65c-.277.276-.65.431-1.04.432zM20.404 50.756L63.33 93.68l35.567-35.568-42.923-42.922-30.717 4.849-4.85 30.716z" fill="#006BDE"/><path d="M37.658 39.963a7.52 7.52 0 11.01-15.04 7.52 7.52 0 01-.01 15.04zm0-12.097a4.578 4.578 0 103.24 1.342 4.548 4.548 0 00-3.24-1.344v.002zM8.553 52.177l-1.866-4.004a1.473 1.473 0 01.046-1.336l15.95-28.798 2.578 1.428-15.588 28.14 1.55 3.324-2.67 1.246zM34.615 106.054a1.477 1.477 0 01-1.335-.85L11.218 57.888l2.67-1.246 21.44 45.982 24.26-11.313 1.246 2.665-25.595 11.931a1.485 1.485 0 01-.624.147z" fill="#006BDE"/><path d="M34.061 35.204c-.909-.008-1.814-.12-2.698-.331l.658-2.871c1.214.277 3.425.57 4.596-.6 1.147-1.147 1.143-3.548-.015-6.585a32.178 32.178 0 00-7.365-10.691C21.972 6.86 14.301 4.404 11.961 6.745c-2.34 2.34.116 10.016 7.38 17.276.492.485.983.953 1.474 1.402l-1.977 2.185a44.016 44.016 0 01-1.58-1.504C9.042 17.889 5.869 8.67 9.877 4.662c4.008-4.008 13.228-.835 21.444 7.38a35.126 35.126 0 018.035 11.726c1.62 4.232 1.382 7.683-.654 9.721a6.279 6.279 0 01-4.64 1.715zM55.212 63H51.71l17.38-24.438h3.504L55.213 63zm-1.281-20.2c0 1.675.843 2.512 2.529 2.512 1.64 0 2.46-.837 2.46-2.512 0-1.64-.82-2.461-2.46-2.461-1.686 0-2.53.82-2.53 2.46zm-2.222.034c0-2.962 1.584-4.443 4.751-4.443 3.122 0 4.683 1.48 4.683 4.443 0 2.95-1.561 4.426-4.683 4.426-3.167 0-4.751-1.475-4.751-4.426zM65.381 58.71c0 1.675.843 2.513 2.53 2.513 1.64 0 2.46-.838 2.46-2.513 0-1.64-.82-2.46-2.46-2.46-1.687 0-2.53.82-2.53 2.46zm-2.222.035c0-2.963 1.584-4.444 4.751-4.444 3.122 0 4.683 1.481 4.683 4.444 0 2.95-1.561 4.426-4.683 4.426-3.167 0-4.75-1.475-4.75-4.426z" fill="#006BDE"/></symbol><symbol fill="none" viewBox="0 0 126 102" id="b2" xmlns="http://www.w3.org/2000/svg"><g clip-path="url(#bclip0)" fill="#006BDE"><path d="M114.876 31.625h-53.55a1.858 1.858 0 00-1.845 1.843c0 1.007.836 1.842 1.845 1.842h53.55a1.858 1.858 0 001.846-1.842 1.858 1.858 0 00-1.846-1.843zM114.876 41.454h-53.55a1.858 1.858 0 00-1.845 1.843c0 1.007.836 1.843 1.845 1.843h53.55a1.858 1.858 0 001.846-1.843 1.858 1.858 0 00-1.846-1.843zM114.877 21.968H61.351a1.858 1.858 0 00-1.845 1.843c0 1.007.836 1.843 1.845 1.843h53.526a1.857 1.857 0 001.845-1.843 1.857 1.857 0 00-1.845-1.843z"/><path d="M120.881 0H5.119A5.111 5.111 0 000 5.111v78.017a5.111 5.111 0 005.119 5.112h77.52l-2.757 5.75a2.205 2.205 0 00.221 2.26 2.208 2.208 0 002.117.86l5.119-.81 2.854 4.668a2.17 2.17 0 001.87 1.057h.124a2.188 2.188 0 001.87-1.254l4.947-10.37 4.946 10.37a2.188 2.188 0 001.87 1.254h.123c.763 0 1.477-.394 1.871-1.057l2.854-4.669 5.119.811a2.21 2.21 0 002.117-.86 2.205 2.205 0 00.221-2.26l-2.756-5.75h5.512A5.111 5.111 0 00126 83.128V5.111A5.111 5.111 0 00120.881 0zM91.916 96.668l-1.944-3.17a2.217 2.217 0 00-2.215-1.032l-3.273.516 3.445-7.224a6.58 6.58 0 005.316 1.94 2.883 2.883 0 011.944.517c.197.123.37.246.566.368l-3.839 8.085zm7.53-10.935c-.295.05-.59.05-.86 0h-.025c-.443-.074-.862-.221-1.23-.491a6.628 6.628 0 00-3.815-1.204c-.197 0-.419 0-.616.024a2.9 2.9 0 01-2.904-1.67 6.154 6.154 0 00-.86-1.377c-.025-.024-.025-.049-.05-.049-.025-.024-.025-.05-.05-.074l-.073-.073a6.437 6.437 0 00-2.215-1.671c-1.107-.516-1.796-1.671-1.673-2.9a6.566 6.566 0 00-1.182-4.423 2.876 2.876 0 010-3.342 6.566 6.566 0 001.182-4.423c-.123-1.228.566-2.383 1.673-2.9a6.718 6.718 0 003.248-3.243 2.9 2.9 0 012.904-1.67 6.59 6.59 0 004.43-1.18 2.887 2.887 0 013.347 0 6.592 6.592 0 004.43 1.18 2.9 2.9 0 012.904 1.67 6.717 6.717 0 003.248 3.244c1.107.516 1.796 1.67 1.673 2.9a6.568 6.568 0 001.182 4.422 2.878 2.878 0 010 3.342 6.568 6.568 0 00-1.182 4.423c.123 1.229-.566 2.384-1.673 2.9a6.44 6.44 0 00-2.215 1.67l-.074.074c-.024.025-.024.05-.049.05-.025.024-.049.049-.049.073-.345.418-.615.885-.861 1.376a2.9 2.9 0 01-2.904 1.671 6.592 6.592 0 00-4.43 1.18 3.16 3.16 0 01-1.23.491zm10.804 6.733c-.886-.147-1.747.27-2.215 1.032l-1.944 3.17-3.864-8.06c.197-.123.394-.221.566-.368a2.885 2.885 0 011.945-.517 6.578 6.578 0 005.315-1.94l3.445 7.224-3.248-.541zm12.059-9.338c0 .787-.64 1.426-1.428 1.426h-7.284l-.96-1.99.148-.074c2.535-1.155 4.085-3.81 3.814-6.586a2.87 2.87 0 01.517-1.941 6.564 6.564 0 000-7.617 2.871 2.871 0 01-.517-1.942c.271-2.776-1.279-5.43-3.814-6.585a2.88 2.88 0 01-1.428-1.425 6.577 6.577 0 00-6.595-3.81 2.883 2.883 0 01-1.944-.515 6.59 6.59 0 00-7.629 0 2.884 2.884 0 01-1.944.516 6.578 6.578 0 00-6.595 3.809 2.876 2.876 0 01-1.428 1.425c-2.534 1.155-4.085 3.809-3.814 6.585a2.873 2.873 0 01-.517 1.942 6.563 6.563 0 000 7.617c.394.565.59 1.253.517 1.941-.27 2.777 1.28 5.43 3.814 6.586l.148.073-.96 1.99H5.12a1.427 1.427 0 01-1.428-1.425V5.111c0-.786.64-1.425 1.428-1.425h115.738c.787 0 1.427.639 1.427 1.425l.025 78.017z"/><path d="M98.88 58.704c-6.324 0-11.468 5.135-11.468 11.45 0 6.316 5.144 11.451 11.468 11.451 6.325 0 11.468-5.136 11.468-11.45 0-6.316-5.143-11.451-11.468-11.451zm0 19.215c-4.282 0-7.776-3.49-7.776-7.765 0-4.275 3.494-7.764 7.776-7.764s7.777 3.489 7.777 7.764c0 4.276-3.495 7.765-7.777 7.765zM19.786 67.28h-6.743v-9.068c0-4.448 3.643-8.084 8.097-8.084h21.878c4.454 0 8.096 3.636 8.096 8.084v9.067H19.786zm20.894 0h-4.282a1.858 1.858 0 00-1.846 1.842c0 1.008.837 1.843 1.846 1.843h16.611a1.858 1.858 0 001.846-1.843v-10.91c0-6.487-5.291-11.77-11.788-11.77h-1.378a14.242 14.242 0 004.7-10.566c0-7.863-6.398-14.252-14.273-14.252s-14.274 6.389-14.274 14.252c0 4.177 1.821 7.961 4.7 10.566h-1.377c-6.497 0-11.788 5.283-11.788 11.77v10.91c0 1.008.836 1.843 1.845 1.843H27.834a1.858 1.858 0 001.845-1.843 1.858 1.858 0 00-1.845-1.843h-4.356H40.68zM21.51 35.85c0-5.824 4.749-10.566 10.581-10.566s10.582 4.742 10.582 10.566c0 5.824-4.75 10.566-10.582 10.566-5.832 0-10.582-4.718-10.582-10.566z"/></g><defs><clipPath id="bclip0"><path fill="#fff" d="M0 0h126v102H0z"/></clipPath></defs></symbol><symbol fill="none" viewBox="0 0 103 103" id="b3" xmlns="http://www.w3.org/2000/svg"><path d="M66.878 25.603a4.937 4.937 0 00-3.512-1.455 4.934 4.934 0 00-3.511 1.455 4.934 4.934 0 00-1.455 3.512c0 1.326.517 2.574 1.454 3.511l8.46 8.46a4.935 4.935 0 003.512 1.455 4.935 4.935 0 003.511-1.455l18.076-18.075a4.933 4.933 0 001.455-3.511 4.933 4.933 0 00-1.455-3.512 4.932 4.932 0 00-3.512-1.455 4.93 4.93 0 00-3.511 1.455l-1.993 1.992a19.195 19.195 0 00-4.814-2.684v-2.26a4.972 4.972 0 00-4.965-4.966H59.046V6.346C59.045 2.847 56.198 0 52.698 0H35.333a6.354 6.354 0 00-6.346 6.346v7.171a3.53 3.53 0 003.526 3.526H55.52a3.53 3.53 0 003.525-3.526v-2.424h15.572c1.072 0 1.944.872 1.944 1.944v1.392a19.192 19.192 0 00-3.805-.386c-10.584 0-19.196 8.612-19.196 19.196 0 10.584 8.611 19.195 19.196 19.195 1.291 0 2.564-.13 3.805-.378v45.978a1.946 1.946 0 01-1.944 1.944H13.415a1.945 1.945 0 01-1.943-1.944V13.037c0-1.072.871-1.944 1.943-1.944H23.46a1.511 1.511 0 000-3.023H13.415a4.972 4.972 0 00-4.966 4.967v84.997A4.972 4.972 0 0013.415 103h61.203a4.972 4.972 0 004.965-4.966V51.182a19.161 19.161 0 006.524-4.151 19.094 19.094 0 005.833-13.122 1.512 1.512 0 00-3.02-.103A16.093 16.093 0 0177.725 48.64c-.087.02-.172.047-.252.083a16.35 16.35 0 01-4.717.69c-8.918 0-16.173-7.256-16.173-16.174s7.255-16.173 16.173-16.173c3.425 0 6.736 1.083 9.482 3.073L71.826 30.552l-4.948-4.949zM56.023 13.517a.504.504 0 01-.504.504H32.514a.504.504 0 01-.504-.504v-7.17a3.327 3.327 0 013.324-3.325H52.7a3.328 3.328 0 013.324 3.324v7.171zm32.504 4.608c.367-.368.855-.57 1.374-.57a1.946 1.946 0 011.375 3.319L73.2 38.95c-.367.366-.855.57-1.375.57-.519 0-1.007-.204-1.374-.57l-8.46-8.46a1.93 1.93 0 01-.57-1.375c0-.52.203-1.007.57-1.374.368-.367.856-.57 1.375-.57s1.007.203 1.374.57l6.017 6.017c.59.59 1.547.59 2.137 0l15.633-15.633z" fill="#006BDE"/><path d="M49.576 37.93H31.163a1.51 1.51 0 000 3.022h18.413a1.511 1.511 0 100-3.022zM28.28 22.332H18.112a1.511 1.511 0 100 3.023H28.28a1.511 1.511 0 000-3.023zM31.163 47.962h18.413a1.511 1.511 0 000-3.021H31.163a1.51 1.51 0 100 3.021zM55.937 56.257H31.164a1.51 1.51 0 000 3.023h24.773a1.511 1.511 0 000-3.023zM31.163 66.29H43.55a1.51 1.51 0 000-3.022H31.165a1.51 1.51 0 000 3.022zM31.163 77.626h18.413a1.511 1.511 0 000-3.022H31.163a1.51 1.51 0 000 3.022zM31.163 84.636h24.774a1.511 1.511 0 000-3.021H31.164a1.51 1.51 0 100 3.021zM21.319 36.62a6.11 6.11 0 00-6.103 6.104 6.11 6.11 0 006.103 6.103 6.11 6.11 0 006.104-6.103 6.11 6.11 0 00-6.104-6.104zm0 9.185a3.085 3.085 0 01-3.081-3.081 3.085 3.085 0 013.081-3.081 3.085 3.085 0 013.081 3.08 3.085 3.085 0 01-3.081 3.082zM21.319 55.17a6.11 6.11 0 00-6.103 6.103 6.11 6.11 0 006.103 6.104 6.11 6.11 0 006.104-6.104 6.11 6.11 0 00-6.104-6.103zm0 9.185a3.085 3.085 0 01-3.081-3.081c0-1.7 1.382-3.082 3.081-3.082a3.085 3.085 0 013.081 3.082 3.085 3.085 0 01-3.081 3.081zM21.319 73.516a6.11 6.11 0 00-6.103 6.104 6.11 6.11 0 006.103 6.103 6.11 6.11 0 006.104-6.103 6.11 6.11 0 00-6.104-6.104zm0 9.185a3.085 3.085 0 01-3.081-3.081 3.085 3.085 0 013.081-3.081A3.085 3.085 0 0124.4 79.62a3.085 3.085 0 01-3.081 3.081z" fill="#006BDE"/></symbol><symbol fill="none" viewBox="0 0 109 109" id="b4" xmlns="http://www.w3.org/2000/svg"><g clip-path="url(#dclip0)"><path d="M88.307 56.097h4.748a8.062 8.062 0 007.898 6.45c4.428 0 8.047-3.619 8.047-8.047 0-4.428-3.619-8.047-8.047-8.047a8.062 8.062 0 00-7.898 6.45h-4.748c-.383-8.132-3.64-15.52-8.792-21.182l8.558-8.558a10.064 10.064 0 005.982 1.958c5.62 0 10.198-4.577 10.198-10.197 0-5.62-4.578-10.198-10.198-10.198S83.88 9.303 83.88 14.924c0 2.235.724 4.3 1.959 5.982l-8.559 8.558a33.714 33.714 0 00-21.182-8.792v-4.727a8.062 8.062 0 006.45-7.898C62.547 3.62 58.928 0 54.5 0c-4.428 0-8.047 3.62-8.047 8.047a8.062 8.062 0 006.45 7.898v4.748c-8.132.383-15.52 3.64-21.182 8.792l-8.558-8.558a10.064 10.064 0 001.958-5.982c0-3.406-1.682-6.557-4.492-8.452a1.603 1.603 0 00-2.214.426 1.603 1.603 0 00.426 2.214 6.964 6.964 0 013.087 5.79c0 3.854-3.151 7.005-7.004 7.005-3.854 0-7.004-3.13-7.004-7.004a7.025 7.025 0 015.088-6.749c.851-.234 1.34-1.128 1.107-1.98-.235-.851-1.129-1.32-1.98-1.086-4.364 1.235-7.409 5.28-7.409 9.815 0 5.62 4.577 10.197 10.198 10.197 2.235 0 4.3-.724 5.982-1.958l8.558 8.558a33.714 33.714 0 00-8.792 21.182h-4.727a8.062 8.062 0 00-7.898-6.45C3.62 46.453 0 50.072 0 54.5c0 4.428 3.62 8.047 8.047 8.047a8.062 8.062 0 007.898-6.45h4.748c.383 8.132 3.64 15.52 8.792 21.182l-8.558 8.559a10.064 10.064 0 00-5.982-1.96c-5.62 0-10.198 4.578-10.198 10.198s4.578 10.198 10.198 10.198 10.197-4.577 10.197-10.198c0-2.235-.723-4.3-1.958-5.982l8.558-8.558a33.714 33.714 0 0021.183 8.792v4.748a8.062 8.062 0 00-6.451 7.898c0 4.428 3.62 8.047 8.047 8.047 4.428 0 8.048-3.619 8.048-8.047a8.062 8.062 0 00-6.451-7.898v-4.748c8.132-.383 15.52-3.64 21.183-8.792l8.558 8.558a10.064 10.064 0 00-1.959 5.982c0 5.62 4.577 10.198 10.198 10.198 5.62 0 10.197-4.577 10.197-10.198 0-1.107-.17-2.192-.532-3.236-.277-.83-1.192-1.298-2.023-1-.83.277-1.298 1.192-1 2.022.234.724.362 1.47.362 2.214 0 3.854-3.151 7.004-7.004 7.004-3.854 0-7.026-3.15-7.026-7.004 0-3.853 3.151-7.004 7.004-7.004.895 0 1.746.17 2.555.49.83.32 1.746-.085 2.065-.894a1.595 1.595 0 00-.894-2.065 10.155 10.155 0 00-3.726-.703c-2.235 0-4.3.724-5.982 1.959l-8.558-8.58c5.13-5.663 8.41-13.05 8.771-21.182zm12.646-6.45a4.852 4.852 0 014.854 4.853 4.852 4.852 0 01-4.854 4.854 4.852 4.852 0 01-4.854-4.854 4.852 4.852 0 014.854-4.854zM94.076 7.92c3.854 0 7.004 3.15 7.004 7.004 0 3.853-3.15 7.004-7.004 7.004-3.853 0-7.004-3.13-7.004-7.004a6.996 6.996 0 017.004-7.004zm-44.43.127A4.852 4.852 0 0154.5 3.193a4.852 4.852 0 014.854 4.854 4.852 4.852 0 01-4.854 4.854 4.852 4.852 0 01-4.854-4.854zM8.047 59.354A4.852 4.852 0 013.193 54.5a4.852 4.852 0 014.854-4.854 4.852 4.852 0 014.854 4.854 4.852 4.852 0 01-4.854 4.854zM54.5 23.844c16.903 0 30.656 13.752 30.656 30.656 0 16.903-13.753 30.656-30.656 30.656-16.904 0-30.656-13.753-30.656-30.656 0-16.904 13.752-30.656 30.656-30.656zM14.924 101.08c-3.854 0-7.004-3.15-7.004-7.004 0-3.853 3.15-7.004 7.004-7.004 3.853 0 7.004 3.151 7.004 7.004 0 3.854-3.13 7.004-7.004 7.004zm44.43-.127a4.852 4.852 0 01-4.854 4.854 4.852 4.852 0 01-4.854-4.854 4.852 4.852 0 014.854-4.854 4.852 4.852 0 014.854 4.854z" fill="#006BDE"/><path d="M38.022 70.978v-7.856c0-3.853 3.151-7.004 7.004-7.004h18.926c3.854 0 7.005 3.15 7.005 7.004v7.856H38.022zm7.324-27.229c0-5.046 4.109-9.154 9.154-9.154s9.154 4.108 9.154 9.154c0 5.045-4.109 9.154-9.154 9.154s-9.154-4.108-9.154-9.154z" stroke="#006BDE" stroke-width="3" stroke-miterlimit="10"/></g><defs><clipPath id="dclip0"><path fill="#fff" d="M0 0h109v109H0z"/></clipPath></defs></symbol><symbol fill="none" viewBox="0 0 108 108" id="b5" xmlns="http://www.w3.org/2000/svg"><path d="M95.766 17.616L78.149 0H25.734v57.433c-7.55.644-13.5 6.992-13.5 14.708 0 4.43 1.964 8.406 5.063 11.115V108h3.477L27 101.774 33.226 108h3.477V97.031h59.063V17.616zM78.89 4.321l12.554 12.554H78.89V4.321zm-64.125 67.82c0-6.746 5.488-12.235 12.234-12.235 6.746 0 12.234 5.489 12.234 12.235 0 6.746-5.488 12.234-12.234 12.234-6.746 0-12.234-5.488-12.234-12.234zM27 98.195l-7.172 7.171V85.041A14.672 14.672 0 0027 86.906c2.602 0 5.047-.678 7.172-1.865v20.325L27 98.195zm9.703-3.695V83.256c3.1-2.709 5.063-6.686 5.063-11.115 0-7.715-5.95-14.063-13.5-14.708V2.53h48.093v16.875h16.875V94.5h-56.53z" fill="#006BDE"/><path d="M37.125 13.5h20.25v2.531h-20.25V13.5zM37.125 20.25h13.5v2.531h-13.5V20.25zM37.125 30.375h47.25v2.531h-47.25v-2.531zM37.125 37.125h47.25v2.531h-47.25v-2.531zM37.125 50.625h47.25v2.531h-47.25v-2.531zM43.875 57.375h33.75v2.531h-33.75v-2.531zM37.125 43.875h47.25v2.531h-47.25v-2.531zM64.125 67.5h20.25v2.531h-20.25V67.5zM70.875 74.25h13.5v2.531h-13.5V74.25zM27 80.156c4.42 0 8.016-3.596 8.016-8.015 0-4.42-3.596-8.016-8.016-8.016s-8.016 3.596-8.016 8.016S22.58 80.156 27 80.156zm0-13.5a5.49 5.49 0 015.484 5.485A5.49 5.49 0 0127 77.625a5.49 5.49 0 01-5.484-5.484A5.49 5.49 0 0127 66.656z" fill="#006BDE"/></symbol><symbol fill="none" viewBox="0 0 109 109" id="b6" xmlns="http://www.w3.org/2000/svg"><g clip-path="url(#fclip0)"><path d="M109 45.71h-3.956l-5.89 3.098c-.658-.373-1.362-.681-2.087-.857l-7.406-1.846v-.835c3.275-2.285 5.275-6.065 5.275-10.087v-3.076c0-6.835-5.363-12.549-11.933-12.746-.33 0-.66 0-.99.022l1.913-4.505-9.318-9.318-5.494 3.582a30.066 30.066 0 00-6.57-2.725L61.202 0H47.797l-1.362 6.395a29.627 29.627 0 00-6.57 2.725L34.37 5.538l-9.296 9.296 1.89 4.505c-.066 0-.131-.022-.22-.022-3.362-.066-6.526 1.165-8.944 3.494-2.417 2.33-3.736 5.472-3.736 8.834v3.516c0 4.022 2 7.802 5.275 10.087v.835l-4.835 1.209-8.746-5.098H0v36.435l17.295 5.758h3.362l.418-1.472L26.37 86.1c.088 2.879 2.395 5.209 5.274 5.296a5.47 5.47 0 005.274 5.275 5.47 5.47 0 005.275 5.274c.11 2.945 2.505 5.296 5.471 5.296 1.1 0 2.176-.352 3.077-.945l1.56 1.384a5.365 5.365 0 003.538 1.341h.33c2.923 0 5.296-2.373 5.34-5.274a5.348 5.348 0 005.274-5.274 5.348 5.348 0 005.275-5.275c2.922-.066 5.274-2.46 5.274-5.384 0-.175 0-.351-.022-.527L109 71.399V45.71zM91.42 32.085v3.076a8.823 8.823 0 01-4.396 7.604l-.879.505v5.56l8.79 2.198-19.338 10.175v-4.725a8.677 8.677 0 00-2.527-6.131l6.043-1.517v-5.56l-.88-.505a8.823 8.823 0 01-4.394-7.604v-3.516c0-2.395.945-4.637 2.68-6.307a8.673 8.673 0 016.396-2.483c4.68.154 8.504 4.285 8.504 9.23zM57.16 59.818l-7.956-2.549a21.58 21.58 0 00-11.274-.505l-1.01.22v-.506a5.286 5.286 0 013.999-5.12l10.065-2.506v-5.56l-.88-.505a8.823 8.823 0 01-4.394-7.604v-3.516c0-2.395.945-4.637 2.68-6.307a8.707 8.707 0 016.396-2.483c4.703.132 8.526 4.285 8.526 9.23v3.076a8.823 8.823 0 01-4.395 7.604l-.879.505v5.56l10.065 2.506a5.291 5.291 0 013.978 5.12v6.593l-.44.22h-1.077l-10.812-3.1c-.835-.241-1.714-.329-2.593-.373zM37.314 26.305C40.61 19.91 47.27 15.823 54.5 15.823c7.164 0 13.779 4.043 17.12 10.35a12.233 12.233 0 00-1.297 5.472v3.516c0 4.022 2 7.802 5.274 10.087v.835l-7.032 1.758-7.033-1.758v-.835c3.275-2.285 5.274-6.065 5.274-10.087v-3.076c0-6.835-5.362-12.549-11.932-12.746-3.363-.088-6.55 1.12-8.945 3.472-2.417 2.33-3.735 5.472-3.735 8.834v3.516c0 4.022 2 7.802 5.274 10.087v.835l-7.033 1.758-7.032-1.758v-.835c3.275-2.285 5.274-6.065 5.274-10.087v-3.076c0-2.066-.505-4.022-1.362-5.78zm-8.087-10.614l5.626-5.626 4.944 3.208.945-.571a26.803 26.803 0 017.604-3.165l1.077-.263 1.23-5.758h7.692l1.23 5.758 1.077.264a25.936 25.936 0 017.604 3.164l.945.571 4.944-3.208 5.626 5.604-2 4.659a12.577 12.577 0 00-3.714 2.46c-.066.067-.131.155-.197.22-4.154-6.57-11.472-10.701-19.361-10.701-7.955 0-15.295 4.175-19.427 10.833a12.3 12.3 0 00-3.867-2.746l-1.978-4.703zm-6.373 33.14v-5.56l-.88-.506a8.823 8.823 0 01-4.394-7.604v-3.516c0-2.395.945-4.637 2.68-6.307a8.674 8.674 0 016.396-2.483c4.703.132 8.526 4.285 8.526 9.23v3.076a8.823 8.823 0 01-4.395 7.604l-.879.505v5.56l6.021 1.517c-1.56 1.604-2.527 3.757-2.527 6.13v1.297l-5.494 1.21.132-.506.066-3.253-9.274-5.406 4.022-.989zM3.516 45.71h1.275l12.636 7.384-6.373 25.514-7.538-2.528V45.71zm14.35 35.161l-3.45-1.143 6.197-24.788 4 2.329v.505L18.02 80.871h-.154zm12.021 5.054c0-.527.22-1.032.572-1.384l3.098-3.099a1.964 1.964 0 011.384-.571c1.077 0 1.978.879 1.978 1.978a1.98 1.98 0 01-.571 1.384l-3.099 3.099a1.964 1.964 0 01-1.384.571 1.97 1.97 0 01-1.978-1.978zm5.274 5.275c0-.528.22-1.033.572-1.385l3.098-3.099c.374-.373.88-.57 1.385-.57 1.076 0 1.978.878 1.978 1.977a1.98 1.98 0 01-.572 1.384l-3.098 3.1a1.964 1.964 0 01-1.385.57 1.97 1.97 0 01-1.978-1.977zm5.274 5.274c0-.528.22-1.033.572-1.385l3.098-3.098c.374-.374.88-.572 1.385-.572 1.077 0 1.978.88 1.978 1.978a1.98 1.98 0 01-.572 1.385l-3.098 3.098a1.964 1.964 0 01-1.385.572 1.97 1.97 0 01-1.977-1.978zm7.252 7.252a1.984 1.984 0 01-1.977-1.978c0-.527.22-1.033.571-1.384l3.099-3.1c.373-.373.879-.57 1.384-.57 1.077 0 1.978.879 1.978 1.977a1.98 1.98 0 01-.571 1.385l-3.099 3.098c-.374.352-.88.572-1.385.572zm8.505 1.758h-.33c-.439 0-.879-.154-1.208-.462l-1.319-1.164 1.319-1.319a5.443 5.443 0 001.099-1.626l1.604 1.34c.417.352.66.857.66 1.407a1.82 1.82 0 01-1.825 1.824zM71.95 89.661h-.308c-.44 0-.879-.154-1.209-.44l-9.537-7.955-2.264 2.704 9.252 7.713a1.827 1.827 0 01-1.164 3.23h-.374c-.418 0-.835-.153-1.165-.417l-9.56-7.955-2.263 2.703 9.252 7.713a1.827 1.827 0 01-1.165 3.231c-.68 0-1.34-.242-1.846-.66l-3.933-3.274a5.504 5.504 0 00-4.725-3.077 5.47 5.47 0 00-5.274-5.274 5.47 5.47 0 00-5.274-5.274c-.11-2.945-2.506-5.296-5.472-5.296a5.6 5.6 0 00-3.89 1.604l-3.099 3.099c-.176.175-.33.395-.483.593l-5.406-3.23L26.81 62.85l11.867-2.637c3.121-.703 6.395-.55 9.428.417l2.593.835-8.79 4.396a5.89 5.89 0 00-3.253 5.274v.351a5.89 5.89 0 005.89 5.89c1.077 0 2.11-.286 3.033-.835l6.548-3.934c1.319-.791 3.077-.615 4.22.396L73.2 86.364c.396.352.616.88.616 1.407.022 1.033-.835 1.89-1.868 1.89zm33.535-20.415L75.861 84.058c-.088-.11-.198-.198-.308-.286L60.697 70.41a7.116 7.116 0 00-4.747-1.823c-1.274 0-2.549.351-3.648 1.01l-6.548 3.934c-.374.22-.791.33-1.209.33a2.363 2.363 0 01-2.373-2.374v-.351c0-.901.505-1.714 1.318-2.132l9.801-4.9c1.67-.836 3.67-1.033 5.472-.506l11.054 3.165 2.703.043 32.964-17.36v19.8z" fill="#006BDE"/></g><defs><clipPath id="fclip0"><path fill="#fff" d="M0 0h109v109H0z"/></clipPath></defs></symbol><symbol fill="none" viewBox="0 0 26 26" id="calc" xmlns="http://www.w3.org/2000/svg"><g clip-path="url(#gclip0)" fill="#006BDE"><path d="M2.98 0A2.979 2.979 0 000 2.98v9.478h12.458V0H2.98zm4.874 7.313H6.771v1.083a.813.813 0 01-1.625 0V7.312H4.063a.813.813 0 010-1.625h1.083V4.604a.813.813 0 011.625 0v1.083h1.083a.813.813 0 010 1.625zM0 13.542v9.479A2.979 2.979 0 002.98 26h9.478V13.54H0zm8.158 7.009a.813.813 0 11-1.149 1.148l-.78-.78-.78.78a.81.81 0 01-1.148 0 .813.813 0 010-1.15l.78-.78-.78-.78a.813.813 0 111.15-1.149l.78.78.78-.78a.813.813 0 011.149 1.15l-.78.78.778.78zM23.02 0h-9.478v12.458H26V2.98A2.979 2.979 0 0023.02 0zm-.54 7.042h-4.876a.813.813 0 010-1.625h4.875a.813.813 0 010 1.625zM13.542 13.542V26h9.479A2.979 2.979 0 0026 23.02v-9.478H13.542zm8.666 8.666h-4.875a.813.813 0 010-1.625h4.875a.813.813 0 010 1.625zm0-3.25h-4.875a.813.813 0 010-1.625h4.875a.813.813 0 010 1.625z"/></g><defs><clipPath id="gclip0"><path fill="#fff" d="M0 0h26v26H0z"/></clipPath></defs></symbol><symbol fill="none" viewBox="0 0 92 92" id="play" xmlns="http://www.w3.org/2000/svg"><g clip-path="url(#hclip0)"><path d="M85.054 41.989l-73.6-41.4A4.608 4.608 0 006.88.626 4.596 4.596 0 004.6 4.6v82.8A4.596 4.596 0 009.2 92c.773 0 1.555-.193 2.254-.589l73.6-41.4A4.613 4.613 0 0087.4 46a4.613 4.613 0 00-2.346-4.011z" fill="#A9D3FF" fill-opacity=".45"/></g><g clip-path="url(#hclip1)"><path d="M71.47 43.384l-48-27a3.005 3.005 0 00-2.982.024A2.997 2.997 0 0019 19v54a2.997 2.997 0 003 3c.504 0 1.014-.126 1.47-.384l48-27A3.009 3.009 0 0073 46a3.009 3.009 0 00-1.53-2.616z" fill="#006BDE"/></g><defs><clipPath id="hclip0"><path fill="#fff" d="M0 0h92v92H0z"/></clipPath><clipPath id="hclip1"><path fill="#fff" transform="translate(16 16)" d="M0 0h60v60H0z"/></clipPath></defs></symbol></svg>