<?xml version="1.0" encoding="utf-8"?><svg xmlns="http://www.w3.org/2000/svg" xmlns:xlink="http://www.w3.org/1999/xlink"><symbol viewBox="0 0 18 30" id="arrow_left" xmlns="http://www.w3.org/2000/svg"><path d="M1.175 13.93L14.665.442a1.52 1.52 0 012.145 0c.592.59.592 1.55 0 2.14L4.39 14.999l12.418 12.417c.592.59.592 1.55 0 2.141a1.52 1.52 0 01-2.144 0L1.174 16.071a1.528 1.528 0 010-2.142z"/></symbol><symbol viewBox="0 0 18 30" id="arrow_right" xmlns="http://www.w3.org/2000/svg"><path d="M16.826 13.93L3.335.442a1.52 1.52 0 00-2.145 0 1.511 1.511 0 000 2.14l12.42 12.416L1.193 27.416a1.513 1.513 0 000 2.141 1.52 1.52 0 002.144 0l13.491-13.486a1.528 1.528 0 00-.002-2.142z"/></symbol><symbol viewBox="0 0 27 27" id="basket" xmlns="http://www.w3.org/2000/svg"><path d="M21.6 21.6a2.69 2.69 0 00-2.7 2.7 2.7 2.7 0 102.7-2.7zM0 0v2.7h2.7l4.86 10.247-1.836 3.307A2.751 2.751 0 005.4 17.55a2.7 2.7 0 002.7 2.7h16.2v-2.7H8.667a.338.338 0 01-.338-.338c0-.067.014-.121.041-.162l1.215-2.2h10.057a2.714 2.714 0 002.363-1.39l4.833-8.735c.095-.216.162-.446.162-.675a1.35 1.35 0 00-1.35-1.35H5.684L4.414 0H0zm8.1 21.6a2.69 2.69 0 00-2.7 2.7 2.7 2.7 0 102.7-2.7z"/></symbol><symbol viewBox="0 0 35 35" id="blueprint" xmlns="http://www.w3.org/2000/svg"><path d="M16.265 16.81l-1.284-4.79c-.07.004-.14.011-.212.011-.072 0-.141-.007-.212-.01l-1.284 4.789c.315.054.631.09.95.11v-.514a.547.547 0 011.093 0v.515c.318-.02.635-.057.949-.111zM12.031 8.203a2.735 2.735 0 105.47 0 2.735 2.735 0 00-5.47 0zm2.735-1.64a1.64 1.64 0 110 3.28 1.64 1.64 0 010-3.28z"/><path d="M14.766 8.75a.547.547 0 100-1.094.547.547 0 000 1.094zM15.86 4.54V3.28a1.094 1.094 0 00-2.188 0V4.54a3.788 3.788 0 012.187 0zM9.458 24.703h.005a.547.547 0 00.662-.388l3.356-12.513a3.815 3.815 0 01-.989-.53l-3.42 12.763a.552.552 0 00.386.668z"/><path d="M32.813 30.193v-.115a2.734 2.734 0 00-5.47 0 .547.547 0 01-1.093 0V8.75h-7.698a3.807 3.807 0 01-.626 1.61l3.591 13.391a1.645 1.645 0 01-.656 1.768l.451 1.683a.548.548 0 11-1.059.283l-.452-1.686a1.598 1.598 0 01-1.452-1.203l-1.8-6.713a9.792 9.792 0 01-1.236.148v.563a.546.546 0 11-1.094 0v-.563a9.794 9.794 0 01-1.237-.147l-1.8 6.714A1.6 1.6 0 019.73 25.8l-.34 1.267a13.585 13.585 0 005.922 1.37.547.547 0 010 1.093 14.82 14.82 0 01-13.124-8.03v11.311h28.005a2.625 2.625 0 002.62-2.619z"/><path d="M32.813 8.203a2.734 2.734 0 00-5.47 0v19.195a3.824 3.824 0 015.47 0V8.203zM2.188 8.75v9.828A13.656 13.656 0 008.4 26.536l.273-1.017a1.64 1.64 0 01-.66-1.765l3.592-13.395a3.807 3.807 0 01-.626-1.609H2.187zM19.657 24.647a.547.547 0 00.413.055h.003a.552.552 0 00.383-.67l-3.417-12.757a3.816 3.816 0 01-.988.529l3.355 12.51a.54.54 0 00.25.333z"/></symbol><symbol viewBox="0 0 34 34" id="building" xmlns="http://www.w3.org/2000/svg"><path d="M26.918 10.2v22.213h7.084V10.201h-7.084zm2.526 4.09h1.992v1.992h-1.992v-1.993zm1.992 10.984h-1.992v-1.992h1.992v1.992zm.027-4.496h-1.992v-1.992h1.992v1.992zM26.93 5.015h7.069v3.194h-7.07V5.015zM0 3.152v29.261h7.117V5.176L0 3.152zm2.56 6.647h1.992v1.992H2.56V9.8zM4.554 25.28H2.562v-1.992h1.992v1.992zm0-4.496H2.562v-1.992h1.992v1.992zm.013-4.496H2.575v-1.993h1.992v1.993zM14.012 26.935h1.992v5.478h-1.992v-5.478zM17.996 26.935h1.992v5.478h-1.992v-5.478z"/><path d="M9.297 1.587v30.826h2.724v-7.47h9.962v7.47h2.941V1.587H9.297zm4.717 20.367h-1.992v-4.233h1.992v4.233zm0-6.225h-1.992v-4.234h1.992v4.234zm0-6.226h-1.992V5.27h1.992v4.233zm3.984 12.451h-1.992v-4.233h1.992v4.233zm0-6.225h-1.992v-4.234h1.992v4.234zm0-6.226h-1.992V5.27h1.992v4.233zm3.985 12.451H19.99v-4.233h1.993v4.233zm0-6.225H19.99v-4.234h1.993v4.234zm0-6.226H19.99V5.27h1.993v4.233z"/></symbol><symbol viewBox="0 0 492 492" id="cancel" xmlns="http://www.w3.org/2000/svg"><path d="M300.188 246L484.14 62.04c5.06-5.064 7.852-11.82 7.86-19.024 0-7.208-2.792-13.972-7.86-19.028L468.02 7.872C462.952 2.796 456.196.016 448.984.016c-7.2 0-13.956 2.78-19.024 7.856L246.008 191.82 62.048 7.872C56.988 2.796 50.228.016 43.02.016c-7.2 0-13.96 2.78-19.02 7.856L7.872 23.988c-10.496 10.496-10.496 27.568 0 38.052L191.828 246 7.872 429.952C2.808 435.024.02 441.78.02 448.984c0 7.204 2.788 13.96 7.852 19.028l16.124 16.116c5.06 5.072 11.824 7.856 19.02 7.856 7.208 0 13.968-2.784 19.028-7.856l183.96-183.952 183.952 183.952c5.068 5.072 11.824 7.856 19.024 7.856h.008c7.204 0 13.96-2.784 19.028-7.856l16.12-16.116c5.06-5.064 7.852-11.824 7.852-19.028 0-7.204-2.792-13.96-7.852-19.028L300.188 246z"/></symbol><symbol viewBox="0 0 21 16" id="catalog" xmlns="http://www.w3.org/2000/svg"><path fill-rule="evenodd" clip-rule="evenodd" d="M19.5.5a1.5 1.5 0 010 3h-12a1.5 1.5 0 110-3h12zm-18 0a1.5 1.5 0 110 3 1.5 1.5 0 010-3zM3 8a1.5 1.5 0 10-3 0 1.5 1.5 0 003 0zm16.5-1.5a1.5 1.5 0 010 3h-12a1.5 1.5 0 110-3h12zM3 14a1.5 1.5 0 10-3 0 1.5 1.5 0 003 0zm16.5-1.5a1.5 1.5 0 010 3h-12a1.5 1.5 0 010-3h12z"/></symbol><symbol viewBox="0 0 16 16" id="chat" xmlns="http://www.w3.org/2000/svg"><path d="M14.398 13.724c2.359-2.721 2.07-6.824-.592-9.206 1.367 4.79-2.248 9.576-7.228 9.576l-1.797-.011A6.555 6.555 0 009.421 16l6.112-.031a.47.47 0 00.327-.803l-1.462-1.442z"/><path d="M6.578 13.156a6.585 6.585 0 006.578-6.578A6.585 6.585 0 006.578 0 6.585 6.585 0 000 6.578a6.53 6.53 0 001.602 4.302L.14 12.323a.47.47 0 00.327.802l6.111.031zM3.781 4.25h5.625a.469.469 0 010 .938H3.781a.469.469 0 010-.938zm0 1.875h5.625a.469.469 0 010 .938H3.781a.469.469 0 010-.938zm-.468 2.344c0-.26.21-.469.468-.469h5.625a.469.469 0 010 .938H3.781a.469.469 0 01-.468-.47z"/></symbol><symbol viewBox="0 0 12 12" id="cloze" xmlns="http://www.w3.org/2000/svg"><path d="M1 1l5 5 5-5M11 11L6 6l-5 5"/></symbol><symbol viewBox="0 0 33 33" id="constructor" xmlns="http://www.w3.org/2000/svg"><path d="M22.241 30.114c-.158-.1-.65-.226-.786-.33l-2.778 1.825-2.258-2.259 1.942-3.094c-.072-.13-.058-.153-.122-.293l-3.577-.637.013-3.483 2.611-.451-1.3-1.27c-1.085.886-2.413 1.41-3.83 1.41h-.01c-1.341 0-2.597-.47-3.645-1.265l-1.323 1.265H4.589c-1.192 0-2.127.406-2.854 1.25C-.393 25.24-.035 30.535.13 32.156H22.63l-.388-2.041zM6.767 14.982c.171 1.477.79 2.792 1.693 3.754.19.203.389.388.601.555.271.217.556.402.858.56a4.83 4.83 0 002.231.556c.8 0 1.55-.203 2.232-.556.303-.158.587-.343.858-.56.212-.171.416-.357.605-.56.9-.962 1.518-2.263 1.69-3.73.017 0 .031.004.05.004.939 0 1.702-.876 1.702-1.956 0-.655-.28-1.229-.71-1.585H6.013c-.429.356-.709.93-.709 1.585 0 .994.637 1.802 1.464 1.933zM33 24.31v-1.505l-3.13-.564a5.648 5.648 0 00-.673-1.622l1.82-2.601-1.066-1.066-2.61 1.815a5.564 5.564 0 00-1.622-.668l-.555-3.126H23.66l-.565 3.13c-.583.14-1.125.37-1.621.673l-2.602-1.82-1.066 1.066 1.816 2.61a5.564 5.564 0 00-.669 1.622l-3.125.556v1.504l3.13.565c.14.582.37 1.124.673 1.621l-1.825 2.602 1.066 1.066 2.61-1.816a5.562 5.562 0 001.622.668l.556 3.126h1.503l.565-3.13a5.645 5.645 0 001.622-.673l2.601 1.82 1.066-1.066-1.816-2.61a5.562 5.562 0 00.669-1.622L33 24.31zm-8.59 1.571a2.32 2.32 0 11-.002-4.641 2.32 2.32 0 01.001 4.641zM9.765 3.085c-1.88.958-3.36 2.873-3.92 4.734l-.127.397h-1.03v2.259H19.9V8.216H18.89l-.127-.397c-.56-1.861-2.042-3.758-3.92-4.716V8.017a1.51 1.51 0 01-.145.56 1.42 1.42 0 01-1.247.777H11.175c-.506 0-.958-.27-1.193-.668a1.399 1.399 0 01-.198-.542c-.018-.072-.018-.127-.018-.199v-4.86zm1.409 5.673h2.258c.326 0 .597-.18.741-.452a.774.774 0 00.109-.397V1.965c0-.145-.037-.271-.073-.398a1.143 1.143 0 00-1.048-.722h-1.987a.827.827 0 00-.831.74c0 .037-.018.073-.018.109V7.909c0 .18.054.343.144.488a.88.88 0 00.705.361z"/></symbol><symbol viewBox="0 0 38 38" id="deal" xmlns="http://www.w3.org/2000/svg"><path d="M37.849 15.023L31.095 3.514a1.113 1.113 0 00-1.517-.4L25.531 5.45l-3.646-1.342a4.069 4.069 0 00-3.45.296l-6.027 3.48a2.783 2.783 0 102.783 4.82l6.613-3.818a2.227 2.227 0 012.227 0s13.324 7.696 13.367 7.722l.198-.163c.423-.348.53-.951.253-1.423z"/><path d="M36.154 18.459l-13.239-7.643-6.613 3.818a4.98 4.98 0 01-3.801.5A4.977 4.977 0 019.459 12.8 4.976 4.976 0 018.959 9a4.97 4.97 0 011.758-2.655l-2.73-1.576a1.113 1.113 0 00-1.537.438L.132 16.985c-.284.53-.096 1.19.425 1.49l.579.334 1.015-1.76a4.747 4.747 0 014.1-2.365 4.732 4.732 0 013.462 1.506 4.717 4.717 0 013.982.347 4.7 4.7 0 012.294 3.278 4.74 4.74 0 011.303.513 4.7 4.7 0 012.293 3.277 4.737 4.737 0 013.035 6.976l-1.387 2.402 2.973 1.717a2.505 2.505 0 002.505-4.339l1.928 1.114a2.505 2.505 0 002.505-4.339l1.285.742a2.505 2.505 0 102.505-4.338l-1.285-.743a2.505 2.505 0 002.505-4.338z"/><path d="M19.776 26.046a2.505 2.505 0 00-3.421.917l.742-1.285a2.505 2.505 0 00-4.339-2.505l.743-1.286a2.505 2.505 0 00-4.34-2.505l-.741 1.286a2.505 2.505 0 00-4.339-2.505l-2.69 4.66a2.505 2.505 0 004.338 2.505 2.505 2.505 0 104.339 2.505 2.505 2.505 0 104.338 2.504 2.505 2.505 0 004.339 2.505l1.948-3.374a2.504 2.504 0 00-.917-3.422z"/></symbol><symbol viewBox="0 0 45 45" id="desc1" xmlns="http://www.w3.org/2000/svg"><path d="M12.857 32.143H22.5V45h-9.643V32.143zM3.65 30.536h.634l10.187-5.882-5.569-3.216-5.253 9.098zM17.135 24.97l-.654.379-.011.006-8.971 5.18h12.853l-3.217-5.564zM7.906 19.95l.004-.013.01-.01 4.937-8.553v-.124H0v9.643h7.361l.545-.944zM44.197 32.143h-8.84V45h8.84c.443 0 .803-.36.803-.804v-11.25a.805.805 0 00-.803-.803zM24.107 32.143h9.643V45h-9.643V32.143zM.804 45H11.25V32.143H.804a.805.805 0 00-.804.803v11.25c0 .444.36.803.804.804zM1.794 30.536l4.64-8.036H0v8.184c.257-.095.53-.145.804-.148h.99zM33.303 30.474l-6.426-11.128-8.35 4.821 3.681 6.369h10.99l.105-.062zM12.857.804A.805.805 0 0012.054 0H.804A.805.805 0 000 .804v8.839h12.857V.803zM42.348 25.251a.8.8 0 00.3-1.098l-5.624-9.737a.813.813 0 00-.492-.377.79.79 0 00-.61.083l-7.653 4.42 6.425 11.13 7.654-4.42zM30.58 7.974l-9.736-5.623a.801.801 0 00-1.094.299l-4.42 7.656 11.128 6.426 4.418-7.652a.795.795 0 00.085-.611.815.815 0 00-.38-.494zM9.706 20.046l6.372 3.68 9.514-5.495.062-.108-11.13-6.425-4.818 8.348z"/></symbol><symbol viewBox="0 0 45 45" id="desc2" xmlns="http://www.w3.org/2000/svg"><path d="M27.456 17.54a10.498 10.498 0 00-7.424-3.074 10.453 10.453 0 00-7.423 3.074L3.07 27.086a10.498 10.498 0 00-3.068 7.409C-.001 40.293 4.696 44.996 10.494 45a10.43 10.43 0 007.416-3.06l7.874-7.873a.75.75 0 00-.532-1.282h-.3a12.621 12.621 0 01-4.8-.93.75.75 0 00-.817.165l-5.661 5.669a4.502 4.502 0 01-6.367-6.367l9.576-9.568a4.5 4.5 0 016.36 0 3.074 3.074 0 004.213 0c.51-.51.819-1.186.87-1.905a3 3 0 00-.87-2.31z"/><path d="M41.92 3.075c-4.1-4.1-10.747-4.1-14.847 0l-7.866 7.859a.75.75 0 00-.157.824.75.75 0 00.704.458h.278c1.643-.003 3.27.315 4.792.937a.75.75 0 00.817-.165l5.646-5.639a4.502 4.502 0 016.367 6.367l-7.034 7.026-.06.067-2.46 2.445a4.5 4.5 0 01-6.358 0 3.074 3.074 0 00-4.215 0 3 3 0 00-.87 1.92 3 3 0 00.87 2.31 10.41 10.41 0 003 2.099c.157.075.315.135.472.202.158.068.323.12.48.18.158.06.323.113.48.158l.442.12c.3.075.6.135.908.187.37.055.743.09 1.117.105H24.996l.45-.052c.165-.008.337-.046.532-.046h.255l.518-.074.24-.045.434-.09h.083a10.498 10.498 0 004.867-2.76l9.545-9.546c4.1-4.1 4.1-10.747 0-14.847z"/></symbol><symbol viewBox="0 0 45 45" id="desc3" xmlns="http://www.w3.org/2000/svg"><path d="M44.613 34.762l-4.83-4.832a3.936 3.936 0 01-2.66 2.142l-.659.156-.156.658c-.267 1.125-1.524 3.244-4.168 3.029l-.675-.055-.352.578a3.981 3.981 0 01-2.694 1.834l6.342 6.342a1.318 1.318 0 002.183-.516l1.788-5.365 5.366-1.788a1.318 1.318 0 00.515-2.183zM13.886 36.438l-.352-.578-.675.055c-2.644.215-3.9-1.904-4.167-3.029l-.157-.658-.658-.157a3.936 3.936 0 01-2.66-2.14l-4.83 4.83A1.318 1.318 0 00.9 36.946l5.366 1.788 1.788 5.365a1.318 1.318 0 002.183.516l6.342-6.342a3.982 3.982 0 01-2.693-1.834zM28.86 35.066l1.198-1.966 2.294.187a1.32 1.32 0 001.39-1.01l.532-2.239 2.238-.532a1.319 1.319 0 001.01-1.39l-.187-2.293 1.965-1.197a1.318 1.318 0 00.531-1.633l-.886-2.124 1.5-1.746a1.318 1.318 0 000-1.718l-1.5-1.747.886-2.124c.25-.6.025-1.294-.53-1.633l-1.966-1.197.187-2.294a1.319 1.319 0 00-1.01-1.39l-2.239-.53-.531-2.24a1.32 1.32 0 00-1.39-1.01l-2.294.187-1.197-1.966a1.319 1.319 0 00-1.634-.53l-2.123.886-1.747-1.5a1.318 1.318 0 00-1.717 0l-1.746 1.5L17.77.93a1.318 1.318 0 00-1.633.53l-1.198 1.965-2.294-.186a1.319 1.319 0 00-1.39 1.01l-.531 2.239-2.239.532c-.633.15-1.062.74-1.009 1.39l.186 2.293L5.697 11.9a1.318 1.318 0 00-.53 1.633l.885 2.124-1.499 1.747a1.319 1.319 0 000 1.718l1.499 1.746-.885 2.124c-.25.6-.025 1.294.53 1.633l1.966 1.197-.187 2.294a1.319 1.319 0 001.01 1.39l2.238.531.532 2.24c.15.633.74 1.06 1.39 1.009l2.293-.187 1.198 1.966a1.318 1.318 0 001.633.53l2.124-.886 1.746 1.499a1.318 1.318 0 001.718 0l1.746-1.499 2.123.886c.6.25 1.295.026 1.634-.53zm-6.841-7.397a1.318 1.318 0 01-1.865 0l-7.766-7.767a1.318 1.318 0 010-1.864l3.994-3.995a1.318 1.318 0 011.864 0l2.84 2.84 6.371-6.37a1.318 1.318 0 011.864 0l3.995 3.994c.514.515.514 1.35 0 1.865L22.019 27.669z"/><path d="M22.019 19.68a1.318 1.318 0 01-1.864 0l-2.84-2.84-2.13 2.13 5.902 5.902 9.432-9.433-2.13-2.13-6.37 6.371z"/></symbol><symbol viewBox="0 0 47 47" id="doc1" xmlns="http://www.w3.org/2000/svg"><path d="M32.744 37.348a2.517 2.517 0 01-2.026-.99c-.161.019-.324.022-.487.009v9.374l2.015-1.51a.839.839 0 011.007 0l2.014 1.51v-9.374c-.168.014-.336.01-.504-.01-.48.63-1.228.997-2.02.99zM0 39.027a2.518 2.518 0 002.518 2.518h26.038v-3.358H0v.84zM36.35 30.65a.839.839 0 01-.476-1.15.873.873 0 00-1.159-1.166.84.84 0 01-1.152-.476.87.87 0 00-1.64 0 .84.84 0 01-1.152.476.872.872 0 00-1.158 1.166.84.84 0 01-.477 1.15.873.873 0 000 1.646.84.84 0 01.477 1.151.872.872 0 001.158 1.165.84.84 0 011.152.477.87.87 0 001.64 0 .84.84 0 011.152-.477.873.873 0 001.159-1.165.838.838 0 01.476-1.151.874.874 0 000-1.645z"/><path d="M6.714 3.777v32.732h21.841v-.932a2.523 2.523 0 01-.691-2.081 2.563 2.563 0 010-4.046 2.56 2.56 0 012.854-2.861 2.556 2.556 0 014.042 0 2.56 2.56 0 012.853 2.861 2.563 2.563 0 010 4.046 2.517 2.517 0 01-.671 2.056v5.838c.264.098.544.15.825.154a2.518 2.518 0 002.518-2.517V3.777c.002-.262.029-.522.08-.78.014-.079.039-.154.058-.233.041-.17.094-.338.156-.503a4.166 4.166 0 01.348-.688c.043-.07.083-.142.133-.21.024-.034.041-.071.066-.104H9.232a2.518 2.518 0 00-2.518 2.518zm29.375 17.625H21.82v-1.679h14.268v1.679zm0-4.197H16.785v-1.678H36.09v1.678zM26.017 6.295h3.358v1.678h-3.358V6.295zm-8.392 0h6.714v1.678h-6.714V6.295zm-2.518 4.196h16.785v1.678H15.107v-1.678zm-4.197 5.036h4.197v1.678H10.91v-1.678zm0 4.196h9.232v1.679H10.91v-1.679zm0 4.197h16.786v1.678H10.91V23.92zm0 4.196h14.268v1.678H10.91v-1.678zM44.482 1.259a2.518 2.518 0 00-2.518 2.518v.839H47v-.84a2.518 2.518 0 00-2.518-2.517z"/></symbol><symbol viewBox="0 0 35 45" id="doc2" xmlns="http://www.w3.org/2000/svg"><path d="M24.004 13.184a3.08 3.08 0 01-3.076-3.077V0H5.195A4.84 4.84 0 00.361 4.834v35.332A4.84 4.84 0 005.195 45h24.61a4.84 4.84 0 004.834-4.834V13.184H24.004zM7.568 31.64h6.392a1.318 1.318 0 010 2.636H7.568a1.318 1.318 0 110-2.636zM6.25 25.928c0-.728.59-1.319 1.318-1.319h19.336a1.318 1.318 0 110 2.637H7.568c-.728 0-1.318-.59-1.318-1.318zm20.654-8.35a1.318 1.318 0 010 2.637H7.568a1.318 1.318 0 110-2.637h19.336z"/><path d="M23.564 10.107c0 .243.198.44.44.44H34.05a4.82 4.82 0 00-.924-1.207l-8.475-8.017a4.845 4.845 0 00-1.088-.776v9.56z"/></symbol><symbol viewBox="0 0 45 45" id="doc3" xmlns="http://www.w3.org/2000/svg"><path d="M26.517 9.643a4.018 4.018 0 11-8.036 0 4.018 4.018 0 018.036 0z"/><path d="M32.144 3.214H12.858c0 1.367-1.045 2.411-2.41 2.411v33.75c1.365 0 2.41 1.045 2.41 2.41h19.286c0-1.365 1.044-2.41 2.41-2.41V5.625c-1.366 0-2.41-1.044-2.41-2.41zm-9.643.804a5.59 5.59 0 015.625 5.625 5.5 5.5 0 01-2.41 4.58v7.313l-3.215-2.17-3.214 2.17v-7.313c-2.572-1.768-3.215-5.303-1.367-7.794a5.5 5.5 0 014.58-2.411zm-6.429 20.09H28.93v1.606H16.072v-1.607zm4.018 15.267H15.27v-1.607h4.821v1.607zm9.643 0h-4.822v-1.607h4.822v1.607zm3.214-4.018H12.054V33.75h20.893v1.607zm0-3.214H12.054v-1.607h20.893v1.607zm0-3.214H12.054v-1.607h20.893v1.607z"/><path d="M20.894 15.027v3.536l1.607-1.045 1.607 1.044v-3.535a5.48 5.48 0 01-3.214 0z"/><path d="M7.231 0v45h30.536V0H7.231zM36.16 40.982h-1.607c-.482 0-.804.322-.804.804v1.607h-22.5v-1.607c0-.483-.321-.804-.803-.804H8.839V4.018h1.607c.482 0 .803-.321.803-.804V1.607h22.5v1.607c0 .483.322.804.804.804h1.607v36.964z"/></symbol><symbol viewBox="0 0 47 47" id="document_1" xmlns="http://www.w3.org/2000/svg"><path d="M32.743 37.348a2.517 2.517 0 01-2.026-.99c-.161.019-.324.022-.486.01v9.373l2.014-1.51a.838.838 0 011.007 0l2.014 1.51v-9.374c-.167.014-.336.01-.503-.01-.48.63-1.23.997-2.02.991zM0 39.027a2.518 2.518 0 002.518 2.518h26.038v-3.358H0v.84zM36.35 30.65a.84.84 0 01-.477-1.15.873.873 0 00-1.159-1.166.84.84 0 01-1.152-.477.87.87 0 00-1.64 0 .84.84 0 01-1.152.477.872.872 0 00-1.158 1.166.84.84 0 01-.477 1.15.874.874 0 000 1.646.839.839 0 01.477 1.151.872.872 0 001.158 1.165.84.84 0 011.152.477.87.87 0 001.64 0 .84.84 0 011.152-.477.873.873 0 001.159-1.165.838.838 0 01.476-1.151.874.874 0 000-1.645z"/><path d="M6.715 3.777v32.732h21.841v-.932a2.522 2.522 0 01-.691-2.081 2.563 2.563 0 010-4.046 2.56 2.56 0 012.854-2.861 2.556 2.556 0 014.041 0 2.56 2.56 0 012.854 2.861 2.563 2.563 0 010 4.046 2.517 2.517 0 01-.671 2.056v5.838c.264.098.544.15.825.155a2.518 2.518 0 002.518-2.518V3.777a4.18 4.18 0 01.08-.78c.014-.079.039-.154.058-.232.041-.171.094-.34.156-.504a4.168 4.168 0 01.348-.688c.043-.07.083-.142.133-.21.024-.034.041-.071.066-.104H9.233a2.518 2.518 0 00-2.518 2.518zM36.09 21.402H21.822v-1.679H36.09v1.679zm0-4.197H16.786v-1.678H36.09v1.678zM26.018 6.295h3.358v1.678h-3.358V6.295zm-8.392 0h6.714v1.678h-6.714V6.295zm-2.518 4.196h16.785v1.679H15.108V10.49zm-4.197 5.036h4.197v1.678H10.91v-1.678zm0 4.196h9.232v1.679h-9.232v-1.679zm0 4.197h16.786v1.678H10.911V23.92zm0 4.196H25.18v1.679H10.911v-1.679zM44.483 1.259a2.518 2.518 0 00-2.518 2.518v.84H47v-.84a2.518 2.518 0 00-2.518-2.518z"/></symbol><symbol viewBox="0 0 35 45" id="document_2" xmlns="http://www.w3.org/2000/svg"><path d="M24.002 13.184a3.08 3.08 0 01-3.076-3.077V0H5.193A4.84 4.84 0 00.36 4.834v35.332A4.84 4.84 0 005.193 45h24.61a4.84 4.84 0 004.834-4.834V13.184H24.002zM7.566 31.64h6.392a1.318 1.318 0 010 2.636H7.566a1.318 1.318 0 110-2.636zm-1.318-5.713c0-.728.59-1.319 1.318-1.319h19.336a1.318 1.318 0 110 2.637H7.566c-.728 0-1.318-.59-1.318-1.318zm20.654-8.35a1.318 1.318 0 010 2.637H7.566a1.318 1.318 0 110-2.637h19.336z"/></symbol><symbol viewBox="0 0 45 45" id="document_3" xmlns="http://www.w3.org/2000/svg"><path d="M26.516 9.643a4.018 4.018 0 11-8.036 0 4.018 4.018 0 018.036 0z"/><path d="M32.142 3.214H12.856c0 1.367-1.044 2.411-2.41 2.411v33.75c1.366 0 2.41 1.045 2.41 2.41h19.286c0-1.365 1.044-2.41 2.41-2.41V5.625c-1.366 0-2.41-1.044-2.41-2.41zm-9.643.804a5.59 5.59 0 015.625 5.625 5.5 5.5 0 01-2.41 4.58v7.313l-3.215-2.17-3.214 2.17v-7.313c-2.572-1.768-3.215-5.303-1.367-7.794a5.5 5.5 0 014.58-2.411zm-6.429 20.09h12.857v1.606H16.07v-1.607zm4.018 15.267h-4.821v-1.607h4.821v1.607zm9.643 0H24.91v-1.607h4.821v1.607zm3.214-4.018H12.053V33.75h20.892v1.607zm0-3.214H12.053v-1.607h20.892v1.607zm0-3.214H12.053v-1.607h20.892v1.607z"/><path d="M20.895 15.027v3.536l1.607-1.045 1.607 1.045v-3.536a5.48 5.48 0 01-3.215 0z"/><path d="M7.23 0v45h30.536V0H7.23zM36.16 40.982h-1.607c-.482 0-.804.322-.804.804v1.607h-22.5v-1.607c0-.483-.321-.804-.803-.804H8.838V4.018h1.607c.482 0 .803-.321.803-.804V1.607h22.5v1.607c0 .483.322.804.804.804h1.607v36.964z"/></symbol><symbol viewBox="0 0 32 32" id="enter" xmlns="http://www.w3.org/2000/svg"><path d="M15.947 0C7.6 0 .755 6.391.02 14.545h13.018v-4.363a1.455 1.455 0 012.483-1.028l5.818 5.818a1.452 1.452 0 010 2.056l-5.818 5.819a1.454 1.454 0 01-2.483-1.029v-4.364H.02C.755 25.61 7.6 32 15.947 32c8.836 0 16-7.164 16-16s-7.164-16-16-16z"/></symbol><symbol viewBox="0 0 20 21" id="faq" xmlns="http://www.w3.org/2000/svg"><path d="M8.793 5.31c-.274.214-.46.525-.46.99H6.668c0-1.005.44-1.797 1.103-2.317.64-.502 1.455-.728 2.23-.728.775 0 1.59.226 2.23.728.664.52 1.104 1.312 1.104 2.317 0 .862-.186 1.524-.52 2.056-.323.516-.747.844-1.064 1.084l-.036.027c-.324.245-.511.386-.651.579-.117.16-.23.4-.23.874H9.168c0-.787.2-1.386.552-1.869.295-.404.677-.69.953-.897l.078-.059c.309-.233.51-.404.655-.636.135-.215.262-.551.262-1.159 0-.465-.185-.776-.46-.99-.296-.233-.732-.375-1.207-.375-.475 0-.91.142-1.207.374zM10.834 13.44v-1.68H9.167v1.68h1.667z"/><path fill-rule="evenodd" clip-rule="evenodd" d="M5.228 21v-4.002H2.09c-1.153 0-2.09-.953-2.09-2.125V2.125C0 .953.937 0 2.09 0H17.91C19.063 0 20 .953 20 2.125v12.748c0 1.172-.937 2.125-2.09 2.125h-6.12L5.228 21zm1.666-5.682v2.702l4.431-2.702h6.585c.22 0 .424-.188.424-.445V2.125a.437.437 0 00-.424-.445H2.09a.437.437 0 00-.424.445v12.748c0 .257.204.445.424.445h4.803z"/></symbol><symbol viewBox="0 0 33 35" id="fil" xmlns="http://www.w3.org/2000/svg"><path d="M12.944 19.093c.185.196.294.446.294.718V35l6.524-5.578v-9.611c0-.272.108-.522.293-.718L31.091 7.067H1.908l11.036 12.026zM32.483 0H.517v4.893h31.966V0z"/></symbol><symbol viewBox="0 0 16 16" id="file" xmlns="http://www.w3.org/2000/svg"><path d="M3.313 16h9.374c.776 0 1.407-.63 1.407-1.406V4.688h-3.281c-.776 0-1.407-.631-1.407-1.407V0H3.312c-.775 0-1.406.63-1.406 1.406v13.188c0 .775.631 1.406 1.407 1.406zm1.874-9.406h5.625a.468.468 0 110 .937H5.189a.468.468 0 110-.937zm0 1.875h5.625a.468.468 0 110 .937H5.189a.468.468 0 110-.937zm0 1.875h5.625a.468.468 0 110 .937H5.189a.468.468 0 110-.937zm0 1.875h3.75a.468.468 0 110 .937h-3.75a.468.468 0 110-.937z"/><path d="M10.813 3.75h3.006L10.344.276v3.007c0 .259.21.469.469.469z"/></symbol><symbol viewBox="0 0 15 16" id="fileForm" xmlns="http://www.w3.org/2000/svg"><path d="M4.99 10.253l2.828-2.828c.354-.354 1.414-1.415.354-2.475-1.061-1.06-2.122 0-2.475.353L1.454 9.546c-.707.707-.707 2.828.354 3.889 1.06 1.06 3.182 1.06 3.889.354l7.778-7.779c1.06-1.06.707-2.828-.354-3.889-1.06-1.06-2.828-1.414-3.889-.353l-.707.707"/></symbol><symbol viewBox="0 0 22 22" id="heart" xmlns="http://www.w3.org/2000/svg"><path d="M9.725 3.49l.003.003c.056.055.11.11.158.165l1.12 1.24 1.113-1.245a2.6 2.6 0 01.14-.145l.008-.008.008-.009c1.998-1.97 5.572-1.227 6.86 1.648 1.141 2.55.545 7.694-8.135 14.129C2.32 12.834 1.724 7.691 2.866 5.141c1.287-2.876 4.861-3.62 6.86-1.65z"/></symbol><symbol viewBox="0 0 32 32" id="history" xmlns="http://www.w3.org/2000/svg"><path d="M28.71 6.3h1.397l.002-1.874-4.291-.003-.554 4.323 1.86.238.184-1.431a14.035 14.035 0 012.817 8.461 14.008 14.008 0 01-4.13 9.983 14.012 14.012 0 01-9.973 4.128h-.01a14.056 14.056 0 01-9.992-4.144 14.05 14.05 0 01-4.145-9.99 14.007 14.007 0 014.13-9.983c3.999-3.998 9.98-5.221 15.238-3.116l.697-1.74a15.979 15.979 0 00-17.261 3.53A15.87 15.87 0 000 15.993a15.914 15.914 0 004.694 11.315A15.918 15.918 0 0016.01 32h.012c4.27 0 8.282-1.661 11.3-4.678A15.87 15.87 0 0032 16.012 15.894 15.894 0 0028.71 6.3z"/><path d="M16 6.254c-5.376 0-9.75 4.373-9.75 9.748 0 5.376 4.374 9.749 9.75 9.749s9.75-4.373 9.75-9.749c0-5.375-4.374-9.748-9.75-9.748zm4.019 10.686h-4.956v-4.956h1.874v3.08h3.082v1.876z"/></symbol><symbol viewBox="0 0 20 16" id="mail" xmlns="http://www.w3.org/2000/svg"><path d="M19.286 0H.714A.72.72 0 000 .727v14.546c0 .402.32.727.714.727h18.572a.72.72 0 00.714-.727V.727A.72.72 0 0019.286 0zm-.893 2.518v11.846H1.607V2.518L.991 2.03 1.868.882l.956.757h14.355l.955-.757.877 1.148-.618.488zm-1.214-.882L10 7.318 2.821 1.636 1.866.88.99 2.027l.616.489L9.23 8.552a1.236 1.236 0 001.533 0l7.63-6.034.616-.488-.877-1.148-.953.754z"/></symbol><symbol viewBox="0 0 32 32" id="management" xmlns="http://www.w3.org/2000/svg"><path d="M25.594 16.244a.55.55 0 00-.983.252l-.305 2.137a.535.535 0 01-.029.08 9.878 9.878 0 001.344-2.434l-.027-.035zM23.764 19.105a.608.608 0 01-.078-.005l-3.263-.467a.55.55 0 01-.466-.621l.305-2.138a.55.55 0 00-.873-.517l-1.727 1.295a.55.55 0 01-.77-.11l-1.977-2.637a.55.55 0 01.11-.769l1.726-1.295a.55.55 0 00-.252-.983l-2.137-.305a.55.55 0 01-.466-.622l.466-3.263a.55.55 0 01.621-.467h.001l2.137.306a.546.546 0 00.55-.264.538.538 0 00-.034-.61l-1.293-1.726a.55.55 0 01.11-.77l.311-.233c-.505-.024-1.01-.01-1.513.04-5.426.62-9.322 5.521-8.703 10.948a9.889 9.889 0 004.494 7.206 3.15 3.15 0 011.49 2.639v2.22c0 .91.738 1.648 1.648 1.648h4.395c.91 0 1.648-.738 1.648-1.648v-2.175a3.237 3.237 0 011.522-2.704 9.953 9.953 0 002.292-2.054.549.549 0 01-.274.08zm-6.836 6.852h-1.099v-1.648h1.099v1.648zm-1.099-2.747a3.507 3.507 0 00-2.253-3.274A7.691 7.691 0 0112.28 6.264l.582.93a6.592 6.592 0 001.111 11.72 4.597 4.597 0 012.955 4.296h-1.099zM14.18 30.352v.55c0 .606.492 1.098 1.098 1.098h2.198c.607 0 1.099-.492 1.099-1.099v-.55H14.18z"/><path d="M10.747 21.562c-.326-.211-.64-.44-.939-.686a3.286 3.286 0 01-6.21-1.512 3.299 3.299 0 012.888-3.268 10.463 10.463 0 01-.435-1.863l-.096.457a1.099 1.099 0 01-1.698.68l-1.143-.785-1.001.999.787 1.143a1.099 1.099 0 01-.679 1.7l-1.37.288v1.305l1.37.288a1.099 1.099 0 01.678 1.7l-.786 1.137 1 .999 1.142-.787a1.099 1.099 0 011.7.679l.287 1.371h1.306l.288-1.37a1.099 1.099 0 011.698-.678l1.141.785 1.179-1.178a2.681 2.681 0 00-1.107-1.404zM18.575 28.154H14.18v1.1h4.395v-1.1zM30.098 9.47a1.648 1.648 0 01-.755-2.95l1.287-.965-1.318-1.758-1.288.965a1.648 1.648 0 01-2.62-1.55l.227-1.592-2.175-.31-.228 1.592a1.648 1.648 0 01-2.95.756l-.966-1.29-1.758 1.319.966 1.287a1.648 1.648 0 01-1.552 2.62l-1.594-.227-.312 2.176 1.594.227a1.648 1.648 0 01.755 2.95l-1.287.966 1.319 1.758 1.287-.965a1.648 1.648 0 012.62 1.552l-.227 1.593 2.18.312.227-1.593a1.648 1.648 0 012.95-.755l.966 1.286 1.758-1.318-.968-1.29a1.648 1.648 0 011.55-2.62l1.593.227.31-2.175-1.59-.227zm-6.72 3.447a3.296 3.296 0 110-6.592 3.296 3.296 0 010 6.592zM30.662 20.463h-3.846v1.099h3.846v-1.099zM26.617 23.337l-.703.844 3.296 2.747.704-.845-3.297-2.746zM24.618 24.858H23.52v3.846h1.098v-3.846zM4.707 8.393L.313 9.492l.266 1.065L4.973 9.46l-.266-1.066zM1.865 2.986l-.638.894 3.845 2.746.638-.893-3.845-2.747zM6.998 0L5.934.272l1.123 4.394 1.065-.272L6.998 0z"/></symbol><symbol viewBox="0 0 32 32" id="manufacturing" xmlns="http://www.w3.org/2000/svg"><g clip-path="url(#bdclip0_41_17217)"><path d="M28.548 13.333c-1.267 0-2.36.892-2.613 2.134h-6.507a2.645 2.645 0 00-.896-1.499l1.803-3.301h1.867a2.666 2.666 0 100-1.067h-1.654V7.157c-.088-.037-.18-.064-.27-.1a.51.51 0 00-.074-.041c-.12-.046-.243-.079-.364-.12-.092-.03-.183-.062-.276-.09a9.395 9.395 0 00-.612-.158c-.095-.022-.188-.046-.284-.065a9.621 9.621 0 00-.656-.1c-.088-.011-.174-.027-.263-.036a9.554 9.554 0 00-7 2.12c-.011.01-.024.017-.036.027-.176.146-.341.303-.506.46-.058.055-.12.104-.176.16-.117.118-.224.245-.335.369-.095.105-.195.204-.286.313-.061.075-.115.157-.174.234-.13.166-.26.331-.379.506l-.03.05a9.575 9.575 0 00-.856 1.58c-.007.016-.011.032-.018.047a9.57 9.57 0 000 7.373c.007.016.011.032.018.047.235.553.521 1.082.855 1.581.011.016.02.034.03.05.119.175.25.34.38.506.06.077.112.159.174.233.09.11.19.21.285.314.112.123.218.251.335.369.056.056.119.105.176.16.165.157.33.314.507.46l.036.027a9.555 9.555 0 007 2.12c.089-.009.175-.025.263-.036a9.56 9.56 0 00.656-.1c.096-.019.19-.043.284-.065a9.44 9.44 0 00.612-.158c.093-.028.184-.06.276-.09.121-.041.244-.075.364-.12a.524.524 0 00.074-.042c.09-.035.182-.062.27-.1V22.4h1.654a2.667 2.667 0 100-1.067h-1.867l-1.803-3.301c.46-.384.776-.912.896-1.499h6.507a2.667 2.667 0 102.613-3.2zm-3.733-4.8a1.6 1.6 0 110 3.2 1.6 1.6 0 010-3.2zm0 11.734a1.6 1.6 0 110 3.2 1.6 1.6 0 010-3.2zm-11.99-9.142a5.313 5.313 0 00-2.41 4.342.533.533 0 01-1.067 0 6.405 6.405 0 012.928-5.259.535.535 0 01.55.917zm4.758 6.278a1.6 1.6 0 11-1.536-2.806 1.6 1.6 0 011.536 2.806zm10.965.197a1.6 1.6 0 110-3.2 1.6 1.6 0 010 3.2z"/><path d="M27.48 25.6c-1.268 0-2.36.892-2.614 2.133l-2.498.002-.688-.688c-.003-.004-.005-.009-.009-.012l-.005-.006-1.061-1.056a10.668 10.668 0 11-3.793-20.64 10.552 10.552 0 013.793.699l1.066-1.067c.004-.003.006-.008.01-.012l.683-.686h2.502a2.667 2.667 0 100-1.067h-2.502c-.281 0-.55.112-.75.311l-.453.453-.002-.001a11.538 11.538 0 00-1.146-.352V1.067A1.07 1.07 0 0018.945 0h-4.267a1.07 1.07 0 00-1.066 1.067V3.61c-1.16.294-2.273.754-3.302 1.365L8.524 3.184a1.068 1.068 0 00-1.52-.005L3.997 6.187a1.068 1.068 0 00-.006 1.52L5.79 9.499A12.478 12.478 0 004.423 12.8H1.88a1.07 1.07 0 00-1.067 1.067v4.266A1.07 1.07 0 001.88 19.2h2.544c.295 1.16.754 2.272 1.366 3.301l-1.792 1.787a1.068 1.068 0 00-.006 1.52L7 28.816a1.068 1.068 0 001.52.005l1.792-1.797a12.476 12.476 0 003.302 1.365v2.544A1.07 1.07 0 0014.679 32h4.267a1.07 1.07 0 001.066-1.067V28.39c.389-.097.771-.214 1.147-.352h.003l.451.451c.2.2.47.311.752.312h2.5a2.667 2.667 0 102.614-3.2zm0-23.467a1.6 1.6 0 110 3.2 1.6 1.6 0 010-3.2zm0 27.734a1.6 1.6 0 110-3.2 1.6 1.6 0 010 3.2z"/></g><defs><clipPath id="bdclip0_41_17217"><path d="M0 0h32v32H0z"/></clipPath></defs></symbol><symbol viewBox="0 0 23 23" id="mcol" xmlns="http://www.w3.org/2000/svg"><g clip-path="url(#beclip0)"><path d="M4.792 0H.958A.959.959 0 000 .958v3.834c0 .529.43.958.958.958h3.834c.529 0 .958-.43.958-.958V.958A.959.959 0 004.792 0zM4.792 8.625H.958A.959.959 0 000 9.583v3.834c0 .529.43.958.958.958h3.834c.529 0 .958-.43.958-.958V9.583a.959.959 0 00-.958-.958zM4.792 17.25H.958a.959.959 0 00-.958.958v3.834c0 .529.43.958.958.958h3.834c.529 0 .958-.43.958-.958v-3.834a.959.959 0 00-.958-.958zM13.417 0H9.583a.959.959 0 00-.958.958v3.834c0 .529.43.958.958.958h3.834c.529 0 .958-.43.958-.958V.958A.959.959 0 0013.417 0zM13.417 8.625H9.583a.959.959 0 00-.958.958v3.834c0 .529.43.958.958.958h3.834c.529 0 .958-.43.958-.958V9.583a.959.959 0 00-.958-.958zM13.417 17.25H9.583a.959.959 0 00-.958.958v3.834c0 .529.43.958.958.958h3.834c.529 0 .958-.43.958-.958v-3.834a.959.959 0 00-.958-.958zM22.042 0h-3.834a.959.959 0 00-.958.958v3.834c0 .529.43.958.958.958h3.834c.529 0 .958-.43.958-.958V.958A.959.959 0 0022.042 0zM22.042 8.625h-3.834a.959.959 0 00-.958.958v3.834c0 .529.43.958.958.958h3.834c.529 0 .958-.43.958-.958V9.583a.959.959 0 00-.958-.958zM22.042 17.25h-3.834a.959.959 0 00-.958.958v3.834c0 .529.43.958.958.958h3.834c.529 0 .958-.43.958-.958v-3.834a.959.959 0 00-.958-.958z"/></g><defs><clipPath id="beclip0"><path d="M0 0h23v23H0z"/></clipPath></defs></symbol><symbol viewBox="0 0 23 18" id="mline" xmlns="http://www.w3.org/2000/svg"><path d="M21.852 17.008H6.472a1.148 1.148 0 110-2.296h15.38a1.148 1.148 0 010 2.296zM21.852 9.804H6.472a1.148 1.148 0 110-2.295h15.38a1.148 1.148 0 010 2.295zM21.852 2.6H6.472a1.148 1.148 0 110-2.295h15.38a1.148 1.148 0 010 2.295zM1.541 3.083a1.541 1.541 0 100-3.083 1.541 1.541 0 000 3.083zM1.541 10.197a1.541 1.541 0 100-3.082 1.541 1.541 0 000 3.082zM1.541 17.313a1.541 1.541 0 100-3.083 1.541 1.541 0 000 3.083z"/></symbol><symbol viewBox="0 0 17 19" id="note" xmlns="http://www.w3.org/2000/svg"><path d="M8.501 0a8.298 8.298 0 00-3.996 15.57L4.407 19l3.916-2.413c.059.001.118.01.178.01A8.298 8.298 0 0016.8 8.297 8.298 8.298 0 008.501 0zm1.057 13.134H7.432V6.289h2.126v6.845zM8.481 5.45c-.673 0-1.12-.477-1.106-1.065-.014-.615.433-1.078 1.12-1.078.685 0 1.12.463 1.135 1.078 0 .588-.451 1.065-1.15 1.065z"/></symbol><symbol viewBox="0 0 36 17" id="oko" xmlns="http://www.w3.org/2000/svg"><path fill-rule="evenodd" clip-rule="evenodd" d="M14.797 3.774a18.328 18.328 0 00-11.593 7.12L.795 9.106C4.667 3.887 10.935.5 18 .5c7.064 0 13.332 3.387 17.204 8.606l-2.409 1.788a18.328 18.328 0 00-11.592-7.12 7 7 0 11-6.405 0zM22 10a4 4 0 11-8 0 4 4 0 018 0z"/></symbol><symbol viewBox="0 0 31 31" id="person" xmlns="http://www.w3.org/2000/svg"><path d="M15.502 0c-4.429 0-8.049 3.62-8.049 8.049 0 4.428 3.62 8.049 8.049 8.049 4.428 0 8.049-3.62 8.049-8.05C23.55 3.62 19.93 0 15.5 0zM29.314 22.53a7.51 7.51 0 00-.808-1.477c-1.617-2.39-4.112-3.972-6.924-4.358-.351-.035-.738.035-1.02.246a8.467 8.467 0 01-5.06 1.652 8.467 8.467 0 01-5.062-1.652 1.319 1.319 0 00-1.019-.246 9.932 9.932 0 00-6.924 4.358 8.652 8.652 0 00-.808 1.476c-.106.211-.07.457.035.668.281.492.632.984.949 1.406.492.668 1.019 1.265 1.617 1.828.492.492 1.054.949 1.616 1.406A15.924 15.924 0 0015.466 31c3.445 0 6.784-1.09 9.56-3.163a15.459 15.459 0 001.617-1.406c.563-.563 1.125-1.16 1.617-1.828.352-.457.668-.914.95-1.406.175-.21.21-.457.104-.668z"/></symbol><symbol viewBox="0 0 16 18" id="scr" xmlns="http://www.w3.org/2000/svg"><path d="M1.682 9.516L8.29 2.91a3.594 3.594 0 015.082 5.083l-7.623 7.623a1.438 1.438 0 01-2.033-2.033l7.623-7.624a.719.719 0 00-1.016-1.017l-7.625 7.626a2.875 2.875 0 104.067 4.066l7.623-7.624a5.031 5.031 0 10-7.116-7.115L.666 8.5a.719.719 0 101.016 1.016z"/></symbol><symbol viewBox="0 0 18 18" id="search" xmlns="http://www.w3.org/2000/svg"><path d="M6.686 0a6.686 6.686 0 016.685 6.686 6.702 6.702 0 01-1.604 4.35l.278.278h.812L18 16.457 16.457 18l-5.143-5.143v-.812l-.277-.278a6.702 6.702 0 01-4.351 1.604A6.686 6.686 0 016.686 0zm0 2.057a4.61 4.61 0 00-4.629 4.629 4.61 4.61 0 004.629 4.628 4.61 4.61 0 004.628-4.628 4.61 4.61 0 00-4.628-4.629z"/></symbol><symbol viewBox="0 0 9 6" id="sel" xmlns="http://www.w3.org/2000/svg"><path d="M1.44.5L4.5 3.593 7.56.5l.94.957-4 4.043-4-4.043L1.44.5z"/></symbol><symbol viewBox="0 0 9 6" id="sel2" xmlns="http://www.w3.org/2000/svg"><path d="M1.44.5L4.5 3.593 7.56.5l.94.957-4 4.043-4-4.043L1.44.5z"/></symbol><symbol viewBox="0 0 27 15" id="sel3" xmlns="http://www.w3.org/2000/svg"><path d="M26 1L13.5 13 1 1"/></symbol><symbol viewBox="0 0 32 32" id="settings" xmlns="http://www.w3.org/2000/svg"><path d="M20.654 16.938c-.436 2.136-2.392 3.75-4.655 3.75a4.695 4.695 0 01-4.593-3.75H9.531c.46 3.171 3.17 5.625 6.468 5.625 3.297 0 6.07-2.454 6.53-5.625h-1.875z"/><path d="M24.405 16.938c-.473 4.207-4.073 7.5-8.405 7.5-4.332 0-7.87-3.293-8.343-7.5H0v.937c0 .404.26.763.642.89l3.857 1.259c.162.46.333.878.517 1.264l-1.78 3.576a.937.937 0 00.176 1.08l2.644 2.644a.938.938 0 001.08.176l3.576-1.78c.386.184.805.355 1.264.517l1.26 3.857a.938.938 0 00.889.642h3.813c.403 0 .762-.26.89-.642l1.258-3.857c.46-.162.878-.333 1.265-.517l3.576 1.78c.36.179.794.11 1.08-.176l2.643-2.644a.937.937 0 00.177-1.08l-1.78-3.576c.183-.386.354-.805.516-1.264l3.795-1.26a.939.939 0 00.642-.889v-.938h-7.595z"/><path d="M13.36 16.938A2.808 2.808 0 0016 18.813c1.22 0 2.313-.787 2.701-1.875H13.36zM16 0a3.754 3.754 0 00-3.75 3.75A3.754 3.754 0 0016 7.5c2.068 0 3.813-1.682 3.813-3.75S18.067 0 16 0zM25.438 0a3.754 3.754 0 00-3.75 3.75 3.754 3.754 0 003.75 3.75 3.754 3.754 0 003.75-3.75A3.754 3.754 0 0025.438 0zM6.625 0a3.754 3.754 0 00-3.75 3.75 3.754 3.754 0 003.75 3.75 3.754 3.754 0 003.75-3.75A3.754 3.754 0 006.625 0zM28.635 8.368a5.585 5.585 0 01-6.385.008 6.83 6.83 0 00-1.164.822 8.565 8.565 0 013.357 5.864H32v-.937a6.642 6.642 0 00-3.365-5.757zM16 9.375c-3.3 0-6.04 2.512-6.496 5.688h13.054C22.102 11.886 19.3 9.375 16 9.375zM9.812 8.376a5.586 5.586 0 01-6.385-.008C1.43 9.494 0 11.674 0 14.125v.938h7.62a8.565 8.565 0 013.356-5.865 6.83 6.83 0 00-1.164-.822z"/></symbol><symbol viewBox="0 0 24 24" id="share" xmlns="http://www.w3.org/2000/svg"><path d="M19.233 7.5a3.755 3.755 0 01-3.75-3.75A3.755 3.755 0 0119.233 0a3.755 3.755 0 013.75 3.75 3.755 3.755 0 01-3.75 3.75zm0-6a2.253 2.253 0 00-2.25 2.25c0 1.241 1.01 2.25 2.25 2.25s2.25-1.009 2.25-2.25-1.01-2.25-2.25-2.25zM19.233 24a3.755 3.755 0 01-3.75-3.75 3.755 3.755 0 013.75-3.75 3.755 3.755 0 013.75 3.75 3.755 3.755 0 01-3.75 3.75zm0-6a2.253 2.253 0 00-2.25 2.25c0 1.241 1.01 2.25 2.25 2.25s2.25-1.009 2.25-2.25-1.01-2.25-2.25-2.25zM4.734 15.75A3.755 3.755 0 01.984 12a3.755 3.755 0 013.75-3.75A3.755 3.755 0 018.484 12a3.755 3.755 0 01-3.75 3.75zm0-6A2.253 2.253 0 002.484 12c0 1.241 1.01 2.25 2.25 2.25s2.25-1.009 2.25-2.25-1.01-2.25-2.25-2.25z"/><path d="M7.346 11.27a.748.748 0 01-.372-1.4l9.28-5.29a.75.75 0 01.742 1.303l-9.28 5.29a.751.751 0 01-.37.097zM16.623 19.52a.744.744 0 01-.37-.099l-9.279-5.29a.75.75 0 01.742-1.303l9.28 5.29a.75.75 0 01-.373 1.402z"/></symbol><symbol viewBox="0 0 16 26" id="slideArrow" xmlns="http://www.w3.org/2000/svg"><path d="M14.777 12.072L3.085.384a1.317 1.317 0 00-1.858 0 1.31 1.31 0 000 1.855l10.764 10.76L1.228 23.76a1.311 1.311 0 000 1.856 1.317 1.317 0 001.859 0l11.692-11.688a1.325 1.325 0 00-.002-1.856z"/></symbol><symbol viewBox="0 0 20 20" id="smile" xmlns="http://www.w3.org/2000/svg"><path fill-rule="evenodd" clip-rule="evenodd" d="M18 10a8 8 0 11-16 0 8 8 0 0116 0zm2 0c0 5.523-4.477 10-10 10S0 15.523 0 10 4.477 0 10 0s10 4.477 10 10zM6.5 9a1.5 1.5 0 100-3 1.5 1.5 0 000 3zm3.5 7c-2.8 0-4.5-2.667-5-4h10c-.5 1.333-2.2 4-5 4zm5-8.5a1.5 1.5 0 11-3 0 1.5 1.5 0 013 0z"/></symbol><symbol viewBox="0 0 23 15" id="sort" xmlns="http://www.w3.org/2000/svg"><g clip-path="url(#bsclip0_0:1)"><path d="M10.23 11.208a.547.547 0 00-.774.002l-1.91 1.918V1.548a.547.547 0 10-1.093 0v11.582l-1.91-1.919a.547.547 0 10-.774.772l2.843 2.857c.214.214.561.215.775 0l2.844-2.857a.547.547 0 00-.002-.774z"/></g><g clip-path="url(#bsclip1_0:1)"><path d="M12.77 3.792c.215.213.56.212.774-.002l1.91-1.919v11.582a.547.547 0 101.093 0V1.871l1.91 1.919a.547.547 0 00.774-.772L16.388.161a.547.547 0 00-.775 0l-2.844 2.857a.547.547 0 00.002.774z"/></g><defs><clipPath id="bsclip0_0:1"><path transform="translate(0 1)" d="M0 0h14v14H0z"/></clipPath><clipPath id="bsclip1_0:1"><path transform="rotate(180 11.5 7)" d="M0 0h14v14H0z"/></clipPath></defs></symbol><symbol viewBox="0 0 24 21" id="stat" xmlns="http://www.w3.org/2000/svg"><path fill-rule="evenodd" clip-rule="evenodd" d="M7 0h3v21H7V0zM3 8H0v13h3V8zm21 0h-3v13h3V8zm-7-5h-3v18h3V3z"/></symbol><symbol viewBox="0 0 480.56 480.56" id="tel" xmlns="http://www.w3.org/2000/svg"><path d="M365.354 317.9c-15.7-15.5-35.3-15.5-50.9 0-11.9 11.8-23.8 23.6-35.5 35.6-3.2 3.3-5.9 4-9.8 1.8-7.7-4.2-15.9-7.6-23.3-12.2-34.5-21.7-63.4-49.6-89-81-12.7-15.6-24-32.3-31.9-51.1-1.6-3.8-1.3-6.3 1.8-9.4 11.9-11.5 23.5-23.3 35.2-35.1 16.3-16.4 16.3-35.6-.1-52.1-9.3-9.4-18.6-18.6-27.9-28-9.6-9.6-19.1-19.3-28.8-28.8-15.7-15.3-35.3-15.3-50.9.1-12 11.8-23.5 23.9-35.7 35.5-11.3 10.7-17 23.8-18.2 39.1-1.9 24.9 4.2 48.4 12.8 71.3 17.6 47.4 44.4 89.5 76.9 128.1 43.9 52.2 96.3 93.5 157.6 123.3 27.6 13.4 56.2 23.7 87.3 25.4 21.4 1.2 40-4.2 54.9-20.9 10.2-11.4 21.7-21.8 32.5-32.7 16-16.2 16.1-35.8.2-51.8-19-19.1-38.1-38.1-57.2-57.1zM346.254 238.2l36.9-6.3c-5.8-33.9-21.8-64.6-46.1-89-25.7-25.7-58.2-41.9-94-46.9l-5.2 37.1c27.7 3.9 52.9 16.4 72.8 36.3 18.8 18.8 31.1 42.6 35.6 68.8zM403.954 77.8c-42.6-42.6-96.5-69.5-156-77.8l-5.2 37.1c51.4 7.2 98 30.5 134.8 67.2 34.9 34.9 57.8 79 66.1 127.5l36.9-6.3c-9.7-56.2-36.2-107.2-76.6-147.7z"/></symbol><symbol viewBox="0 0 16 16" id="user" xmlns="http://www.w3.org/2000/svg"><path d="M7.886 7.707c1.059 0 1.976-.38 2.725-1.129a3.729 3.729 0 001.129-2.724 3.73 3.73 0 00-1.13-2.725A3.73 3.73 0 007.887 0C6.827 0 5.91.38 5.161 1.129a3.729 3.729 0 00-1.129 2.725 3.73 3.73 0 001.13 2.724 3.73 3.73 0 002.724 1.13zM5.824 1.792A2.785 2.785 0 017.886.938c.812 0 1.487.279 2.062.854.575.575.854 1.25.854 2.062 0 .812-.28 1.486-.854 2.061a2.786 2.786 0 01-2.062.855c-.812 0-1.487-.28-2.062-.855a2.785 2.785 0 01-.854-2.061c0-.813.28-1.487.854-2.062zM14.629 12.303a9.522 9.522 0 00-.13-1.01 7.979 7.979 0 00-.248-1.017 5.024 5.024 0 00-.418-.948 3.573 3.573 0 00-.63-.822 2.778 2.778 0 00-.905-.568c-.351-.14-.74-.21-1.156-.21-.163 0-.321.068-.626.266-.188.123-.408.264-.653.42-.21.134-.493.26-.844.373-.342.11-.69.167-1.033.167-.342 0-.69-.056-1.032-.167a3.728 3.728 0 01-.844-.372 89.424 89.424 0 01-.653-.42c-.305-.2-.463-.266-.626-.266-.416 0-.805.07-1.155.209-.352.14-.657.33-.906.569-.237.227-.45.503-.63.82a5.03 5.03 0 00-.417.949c-.1.312-.184.654-.249 1.016a9.455 9.455 0 00-.13 1.011 13.69 13.69 0 00-.032.945c0 .836.266 1.512.79 2.01.517.492 1.2.742 2.033.742h7.704c.832 0 1.516-.25 2.033-.742.524-.498.79-1.174.79-2.01 0-.322-.012-.64-.033-.945zm-1.403 2.276c-.342.325-.796.483-1.387.483H4.135c-.592 0-1.045-.158-1.387-.483-.335-.319-.498-.754-.498-1.33 0-.3.01-.597.03-.88.02-.28.058-.586.117-.911.058-.322.131-.623.219-.896.083-.262.198-.521.34-.771a2.65 2.65 0 01.463-.607c.16-.154.363-.28.602-.374.22-.088.469-.136.738-.143a2.5 2.5 0 01.186.113c.193.125.415.269.66.425.278.177.634.336 1.06.474.436.14.88.212 1.322.212.44 0 .885-.071 1.32-.212a4.65 4.65 0 001.06-.474c.252-.16.468-.3.66-.425.096-.062.154-.095.187-.113.27.007.518.055.739.143.238.094.44.22.602.374.171.164.327.369.463.607.141.25.256.509.34.77.087.274.16.575.218.897.059.326.098.632.118.91.02.284.03.58.03.88 0 .577-.163 1.012-.498 1.331z"/></symbol><symbol viewBox="0 0 8 8" id="v" xmlns="http://www.w3.org/2000/svg"><path d="M4.743 6.561l3.042-4.443c.14-.205.215-.412.215-.584 0-.332-.267-.538-.713-.538H.712C.266.996 0 1.201 0 1.533c0 .172.074.375.215.581L3.258 6.56c.195.286.46.444.742.444.283 0 .547-.156.743-.443z"/></symbol><symbol viewBox="0 0 14 12" id="v2" xmlns="http://www.w3.org/2000/svg"><path d="M8.3 10.483l5.324-7.776c.246-.36.376-.721.376-1.022 0-.582-.467-.941-1.248-.941H1.246C.466.744 0 1.103 0 1.683c0 .301.13.657.377 1.017l5.324 7.78c.343.5.804.778 1.3.778.495 0 .956-.274 1.299-.775z"/></symbol><symbol viewBox="0 0 19 25" id="vpr" xmlns="http://www.w3.org/2000/svg"><path d="M9.905 20.25H8.698c-.85 0-1.542.69-1.542 1.541v1.667c0 .85.691 1.542 1.542 1.542h1.207c.85 0 1.542-.691 1.542-1.542v-1.667c0-.853-.691-1.541-1.542-1.541zM1.39 7.343l2.228.277a1.542 1.542 0 001.631-.984c.322-.84.769-1.503 1.341-1.986.812-.683 1.822-1.028 3.03-1.028 1.25 0 2.247.33 2.987.984.74.658 1.108 1.444 1.108 2.367 0 .662-.208 1.269-.625 1.818-.27.35-1.1 1.085-2.484 2.207-1.387 1.123-2.31 2.135-2.772 3.034-.473.92-.637 1.94-.678 2.963A1.541 1.541 0 008.697 18.6h1.26c.8 0 1.463-.614 1.535-1.41.052-.573.147-1.007.29-1.303.242-.506.867-1.174 1.868-2.006 1.94-1.606 3.204-2.875 3.798-3.81.59-.933.889-1.922.889-2.967 0-1.889-.805-3.546-2.415-4.97C14.313.713 12.145 0 9.421 0 6.832 0 4.743.701 3.15 2.107 1.794 3.304.97 4.722.68 6.359a.83.83 0 00.712.984z"/></symbol><symbol viewBox="0 0 21 21" id="wapp" xmlns="http://www.w3.org/2000/svg"><path fill-rule="evenodd" clip-rule="evenodd" d="M17.927 3.073A10.459 10.459 0 0121 10.547a10.473 10.473 0 01-3.103 7.418 10.418 10.418 0 01-3.347 2.231 10.507 10.507 0 01-4.048.804h-.049a10.532 10.532 0 01-4.685-1.125H2.203a1.078 1.078 0 01-1.078-1.078v-3.563A10.533 10.533 0 010 10.55c-.007-1.42.265-2.8.804-4.099a10.405 10.405 0 012.231-3.347A10.476 10.476 0 0110.453 0h.047c1.411 0 2.78.274 4.069.816 1.26.527 2.39 1.289 3.358 2.257zM10.5 19.219c2.32 0 4.5-.896 6.143-2.522a8.686 8.686 0 002.58-6.157 8.683 8.683 0 00-2.552-6.206 8.662 8.662 0 00-2.789-1.875 8.677 8.677 0 00-3.38-.678h-.04a8.653 8.653 0 00-6.159 2.576 8.665 8.665 0 00-2.522 6.183 8.75 8.75 0 001.02 4.057l.105.197v3.3h3.3l.197.105a8.75 8.75 0 004.057 1.02h.04zm2.958-7.498c.236.085 1.509.708 1.764.84l.119.056c.19.09.32.152.374.248.063.108.063.626-.15 1.23-.214.607-1.242 1.156-1.742 1.23-.82.123-1.462.062-3.103-.646-2.416-1.045-4.047-3.377-4.366-3.833l-.05-.07-.01-.014c-.161-.22-1.042-1.42-1.042-2.66 0-1.186.582-1.81.852-2.1l.053-.056a.956.956 0 01.689-.321c.173 0 .344 0 .494.01h.06c.15 0 .338 0 .522.442l.289.702c.221.54.464 1.13.508 1.218.065.131.107.279.023.452-.22.439-.446.676-.607.844-.201.21-.3.313-.152.567 1 1.718 1.996 2.313 3.515 3.073.256.129.408.108.558-.066.155-.176.647-.755.82-1.015.171-.262.345-.22.582-.13z"/></symbol></svg>