<?xml version="1.0" encoding="UTF-8"?>
<svg xmlns="http://www.w3.org/2000/svg" xmlns:xlink="http://www.w3.org/1999/xlink" width="0" height="0">
    <symbol width="25" height="26" viewBox="0 0 25 26" fill="none" id="c-mail">
        <path d="M2.08398 21.125H22.9173V13V4.875H12.5007H2.08398V13V21.125Z" stroke="currentColor" stroke-width="2"
              stroke-linejoin="round"/>
        <path d="M2.08398 4.875L12.5007 13L22.9173 4.875" stroke="currentColor" stroke-width="2" stroke-linecap="round"
              stroke-linejoin="round"/>
        <path d="M12.5007 4.875H2.08398V13" stroke="currentColor" stroke-width="2" stroke-linecap="round"
              stroke-linejoin="round"/>
        <path d="M22.9167 13V4.875H12.5" stroke="currentColor" stroke-width="2" stroke-linecap="round"
              stroke-linejoin="round"/>
    </symbol>
    <symbol width="25" height="26" viewBox="0 0 25 26" fill="none" id="c-vk">
        <path
            d="M15.6747 0.722656H8.64453C2.22306 0.722656 0.695312 2.31152 0.695312 8.9774V16.2888C0.695312 22.9671 2.21118 24.556 8.63257 24.556H15.6628C22.0842 24.556 23.612 22.9795 23.612 16.3012V8.98984C23.612 2.31152 22.0961 0.722656 15.6747 0.722656ZM19.1957 17.7287H17.5247C16.8922 17.7287 16.7012 17.1949 15.5673 16.0157C14.5766 15.0227 14.1589 14.8985 13.9082 14.8985C13.5621 14.8985 13.4666 14.9978 13.4666 15.4943V17.0584C13.4666 17.4805 13.3353 17.7287 12.273 17.7287C11.2422 17.6567 10.2426 17.331 9.35653 16.7785C8.47045 16.226 7.72323 15.4625 7.17643 14.5509C5.87832 12.8706 4.97512 10.8984 4.53866 8.79121C4.53866 8.53053 4.63411 8.29466 5.11157 8.29466H6.78255C7.21224 8.29466 7.36743 8.49329 7.53451 8.9526C8.34611 11.4352 9.73071 13.5951 10.2917 13.5951C10.5065 13.5951 10.602 13.4958 10.602 12.9372V10.3801C10.5304 9.21328 9.93359 9.11393 9.93359 8.69193C9.94145 8.58059 9.99072 8.47682 10.071 8.40264C10.1512 8.32847 10.256 8.28974 10.3633 8.29466H12.9892C13.3472 8.29466 13.4666 8.48086 13.4666 8.92773V12.3786C13.4666 12.751 13.6217 12.8751 13.7292 12.8751C13.944 12.8751 14.1111 12.751 14.505 12.3414C15.3514 11.2679 16.043 10.072 16.5579 8.79121C16.6105 8.63709 16.7101 8.50512 16.8416 8.41546C16.9731 8.32579 17.1292 8.28336 17.2861 8.29466H18.957C19.4583 8.29466 19.5658 8.55534 19.4583 8.92773C18.8503 10.3438 18.0981 11.688 17.2144 12.9372C17.0354 13.2227 16.9638 13.3717 17.2144 13.7068C17.3815 13.9675 17.9664 14.4764 18.3603 14.9605C18.9332 15.5549 19.4089 16.2425 19.7686 16.9964C19.9119 17.4805 19.6732 17.7287 19.1957 17.7287Z"
            fill="currentColor"/>
    </symbol>
    <symbol width="26" height="26" viewBox="0 0 26 26" fill="none" id="c-wapp">
        <path
            d="M18.842 15.5415C18.5256 15.3827 16.9651 14.614 16.6743 14.5089C16.3835 14.4026 16.1721 14.3501 15.9607 14.6678C15.7493 14.9842 15.1408 15.7004 14.955 15.9118C14.7705 16.1232 14.5848 16.1488 14.2683 15.9899C13.3332 15.6176 12.47 15.0853 11.7176 14.4167C11.0236 13.7752 10.4286 13.0343 9.95214 12.2182C9.76766 11.9005 9.93292 11.7288 10.0918 11.5713C10.234 11.429 10.4095 11.201 10.5671 11.0152C10.6976 10.8549 10.8046 10.6767 10.8848 10.4861C10.927 10.3985 10.9467 10.3018 10.942 10.2047C10.9373 10.1076 10.9084 10.0132 10.8579 9.9301C10.7785 9.77124 10.1443 8.20952 9.8804 7.57407C9.62289 6.95656 9.36153 7.03983 9.16551 7.02958C8.98103 7.02061 8.76964 7.01805 8.55825 7.01805C8.39745 7.02253 8.23931 7.06025 8.09379 7.12882C7.94827 7.19739 7.81852 7.29533 7.71269 7.41649C7.354 7.75617 7.06999 8.16683 6.87875 8.62232C6.68751 9.07781 6.59324 9.56813 6.60194 10.0621C6.70481 11.259 7.15498 12.3998 7.89718 13.3444C9.25765 15.384 11.1252 17.0348 13.3164 18.1346C13.9075 18.3885 14.5113 18.6117 15.1254 18.8033C15.7728 18.9999 16.4572 19.0424 17.124 18.9276C17.5656 18.8381 17.9839 18.6581 18.3524 18.3987C18.7208 18.1394 19.0315 17.8065 19.2648 17.421C19.4729 16.9469 19.5371 16.4221 19.4493 15.9118C19.3711 15.7785 19.1598 15.7004 18.842 15.5415ZM22.0347 3.90998C19.8566 1.73248 16.9615 0.420659 13.8883 0.218744C10.8151 0.016829 7.77329 0.938581 5.32909 2.81239C2.88489 4.68621 1.20491 7.38439 0.601924 10.4046C-0.00106764 13.4248 0.514022 16.5612 2.0513 19.23L0.25 25.8086L6.98116 24.0445C8.84287 25.0582 10.9289 25.5894 13.0487 25.5896H13.0538C15.565 25.5883 18.0194 24.8427 20.1071 23.4471C22.1947 22.0515 23.8218 20.0684 24.7829 17.7484C25.744 15.4284 25.9958 12.8756 25.5067 10.4126C25.0175 7.94949 23.8093 5.68666 22.0347 3.90997V3.90998ZM18.6614 21.832C16.9807 22.8854 15.0374 23.4444 13.0538 23.4449H13.0487C11.1589 23.4448 9.30386 22.9364 7.6781 21.9729L7.29248 21.7448L3.29785 22.7928L4.36377 18.8981L4.11395 18.4984C3.00517 16.7302 2.44561 14.673 2.50602 12.5868C2.56644 10.5006 3.24411 8.47912 4.45335 6.77806C5.66259 5.07699 7.34909 3.7727 9.29958 3.03011C11.2501 2.28752 13.377 2.13998 15.4113 2.60615C17.4457 3.07232 19.2961 4.13127 20.7286 5.64908C22.1612 7.16689 23.1114 9.0754 23.4593 11.1333C23.8072 13.1912 23.537 15.306 22.683 17.2103C21.829 19.1147 20.4295 20.723 18.6614 21.832Z"
            fill="currentColor"/>
    </symbol>
    <symbol width="25" height="26" viewBox="0 0 25 26" fill="none" id="c-tg">
        <path
            d="M12.5 4.479e-08C10.0277 4.479e-08 7.61099 0.762437 5.55538 2.19089C3.49976 3.61935 1.89761 5.64967 0.951511 8.02511C0.00541605 10.4006 -0.242126 13.0144 0.24019 15.5362C0.722505 18.0579 1.91301 20.3743 3.66117 22.1924C5.40933 24.0105 7.63661 25.2486 10.0614 25.7502C12.4861 26.2518 14.9995 25.9944 17.2835 25.0104C19.5676 24.0265 21.5199 22.3602 22.8934 20.2224C24.2669 18.0846 25 15.5712 25 13C25.0001 11.2928 24.6769 9.60224 24.0488 8.02495C23.4206 6.44765 22.4999 5.01448 21.3391 3.80729C20.1784 2.60011 18.8003 1.64254 17.2837 0.989277C15.7671 0.336017 14.1416 -0.000141672 12.5 4.479e-08ZM16.4744 19.6982C16.4276 19.8195 16.3564 19.9291 16.2656 20.0194C16.1748 20.1098 16.0664 20.179 15.9478 20.2222C15.8292 20.2655 15.7031 20.2819 15.5779 20.2703C15.4527 20.2588 15.3313 20.2195 15.2219 20.1552L11.8286 17.413L9.65065 19.5026C9.60012 19.5414 9.541 19.5664 9.47875 19.5753C9.4165 19.5841 9.3531 19.5765 9.2944 19.5532L9.7119 15.6682L9.72527 15.6792L9.7338 15.6025C9.7338 15.6025 15.8401 9.82078 16.0888 9.57444C16.3406 9.32874 16.2576 9.27544 16.2576 9.27544C16.2719 8.97576 15.8057 9.27544 15.8057 9.27544L7.715 14.6887L4.34564 13.4953C4.34564 13.4953 3.82814 13.3022 3.77939 12.8778C3.72814 12.4566 4.3625 12.2278 4.3625 12.2278L17.7588 6.69303C17.7588 6.69303 18.86 6.18276 18.86 7.0278L16.4744 19.6982Z"
            fill="currentColor"/>
    </symbol>
    <symbol width="27" height="26" viewBox="0 0 27 26" fill="none" id="c-phone">
        <path
            d="M16.6309 4.23438C17.9818 4.59769 19.2135 5.30958 20.2026 6.29875C21.1918 7.28792 21.9037 8.51964 22.267 9.87053"
            stroke="currentColor" stroke-width="2" stroke-linecap="round" stroke-linejoin="round"/>
        <path
            d="M15.8047 7.31445C16.6152 7.53244 17.3543 7.95958 17.9478 8.55308C18.5413 9.14658 18.9684 9.88561 19.1864 10.6962"
            stroke="currentColor" stroke-width="2" stroke-linecap="round" stroke-linejoin="round"/>
        <path
            d="M9.96151 12.6838C10.7881 14.3737 12.1579 15.7373 13.8516 16.5562C13.9755 16.6149 14.1126 16.6403 14.2493 16.63C14.386 16.6197 14.5177 16.5739 14.6314 16.4972L17.1252 14.8343C17.2355 14.7607 17.3624 14.7159 17.4944 14.7037C17.6264 14.6916 17.7593 14.7126 17.8812 14.7648L22.5466 16.7643C22.7051 16.8316 22.8374 16.9486 22.9236 17.0977C23.0098 17.2467 23.0452 17.4198 23.0245 17.5907C22.8771 18.7446 22.3141 19.8052 21.441 20.5738C20.5679 21.3425 19.4445 21.7666 18.2812 21.7666C14.6884 21.7666 11.2427 20.3394 8.70216 17.7988C6.16163 15.2583 4.73438 11.8126 4.73438 8.21976C4.73444 7.05649 5.1585 5.93313 5.92718 5.06002C6.69585 4.18691 7.75642 3.62392 8.9103 3.47646C9.08124 3.45577 9.25428 3.4912 9.40334 3.5774C9.5524 3.66361 9.6694 3.79592 9.73673 3.95441L11.7379 8.62388C11.7897 8.74466 11.8108 8.87637 11.7993 9.00727C11.7879 9.13817 11.7442 9.26421 11.6723 9.37416L10.0151 11.9062C9.93969 12.0201 9.8951 12.1516 9.88571 12.2879C9.87631 12.4242 9.90243 12.5606 9.96151 12.6838V12.6838Z"
            stroke="currentColor" stroke-width="2" stroke-linecap="round" stroke-linejoin="round"/>
    </symbol>

</svg>
