<?xml version="1.0" encoding="UTF-8"?>
<svg xmlns="http://www.w3.org/2000/svg" xmlns:xlink="http://www.w3.org/1999/xlink" width="0" height="0">
<symbol id="document-tab" width="24" height="24" viewBox="0 0 24 24" fill="none">
<path d="M13.1 18.75H2.1C1.80826 18.75 1.52847 18.8685 1.32218 19.0795C1.11589 19.2905 1 19.5766 1 19.875C1 20.1734 1.11589 20.4595 1.32218 20.6705C1.52847 20.8815 1.80826 21 2.1 21H13.1C13.3917 21 13.6715 20.8815 13.8778 20.6705C14.0841 20.4595 14.2 20.1734 14.2 19.875C14.2 19.5766 14.0841 19.2905 13.8778 19.0795C13.6715 18.8685 13.3917 18.75 13.1 18.75ZM2.1 7.5H10.9C11.1917 7.5 11.4715 7.38147 11.6778 7.1705C11.8841 6.95952 12 6.67337 12 6.375C12 6.07663 11.8841 5.79048 11.6778 5.5795C11.4715 5.36853 11.1917 5.25 10.9 5.25H2.1C1.80826 5.25 1.52847 5.36853 1.32218 5.5795C1.11589 5.79048 1 6.07663 1 6.375C1 6.67337 1.11589 6.95952 1.32218 7.1705C1.52847 7.38147 1.80826 7.5 2.1 7.5ZM2.1 12H10.9C11.1917 12 11.4715 11.8815 11.6778 11.6705C11.8841 11.4595 12 11.1734 12 10.875C12 10.5766 11.8841 10.2905 11.6778 10.0795C11.4715 9.86853 11.1917 9.75 10.9 9.75H2.1C1.80826 9.75 1.52847 9.86853 1.32218 10.0795C1.11589 10.2905 1 10.5766 1 10.875C1 11.1734 1.11589 11.4595 1.32218 11.6705C1.52847 11.8815 1.80826 12 2.1 12ZM21.9 14.25H2.1C1.80826 14.25 1.52847 14.3685 1.32218 14.5795C1.11589 14.7905 1 15.0766 1 15.375C1 15.6734 1.11589 15.9595 1.32218 16.1705C1.52847 16.3815 1.80826 16.5 2.1 16.5H21.9C22.1917 16.5 22.4715 16.3815 22.6778 16.1705C22.8841 15.9595 23 15.6734 23 15.375C23 15.0766 22.8841 14.7905 22.6778 14.5795C22.4715 14.3685 22.1917 14.25 21.9 14.25ZM21.9 3H15.3C15.0083 3 14.7285 3.11853 14.5222 3.32951C14.3159 3.54048 14.2 3.82663 14.2 4.125V10.875C14.2 11.1734 14.3159 11.4595 14.5222 11.6705C14.7285 11.8815 15.0083 12 15.3 12H21.9C22.1917 12 22.4715 11.8815 22.6778 11.6705C22.8841 11.4595 23 11.1734 23 10.875V4.125C23 3.82663 22.8841 3.54048 22.6778 3.32951C22.4715 3.11853 22.1917 3 21.9 3ZM20.8 9.75H16.4V5.25H20.8V9.75Z" fill="currentColor"/>
</symbol>

<symbol id="heart-tab" width="100%" height="100%" viewBox="0 0 24 24" fill="none">
<path d="M20.9793 4.0028C19.812 2.85251 18.2645 2.15315 16.618 2.0319C14.9716 1.91065 13.3357 2.37556 12.0078 3.34209C10.6089 2.31704 8.8677 1.85224 7.13488 2.04128C5.40205 2.23031 3.80629 3.05915 2.66894 4.36087C1.53159 5.66259 0.937129 7.34051 1.00527 9.05674C1.07342 10.773 1.7991 12.4 3.03619 13.6102L11.2271 21.6796C11.3294 21.7811 11.451 21.8617 11.5849 21.9167C11.7189 21.9717 11.8626 22 12.0078 22C12.1529 22 12.2966 21.9717 12.4306 21.9167C12.5646 21.8617 12.6862 21.7811 12.7884 21.6796L20.9793 13.6102C21.6199 12.9795 22.1281 12.2307 22.4748 11.4064C22.8215 10.5822 23 9.69873 23 8.80652C23 7.9143 22.8215 7.03083 22.4748 6.20659C22.1281 5.38235 21.6199 4.63349 20.9793 4.0028ZM19.4291 12.083L12.0078 19.3834L4.58642 12.083C3.93244 11.436 3.48694 10.6132 3.30581 9.7178C3.12468 8.82237 3.21598 7.89417 3.56827 7.04966C3.92056 6.20515 4.51814 5.48193 5.28606 4.97072C6.05397 4.45951 6.95802 4.18308 7.88479 4.1761C9.12291 4.17909 10.3092 4.66604 11.1832 5.53002C11.2854 5.63155 11.407 5.71212 11.541 5.76711C11.6749 5.8221 11.8186 5.85041 11.9638 5.85041C12.1089 5.85041 12.2526 5.8221 12.3866 5.76711C12.5206 5.71212 12.6422 5.63155 12.7444 5.53002C13.6441 4.76195 14.8064 4.35931 15.9961 4.40359C17.1858 4.44787 18.3139 4.93576 19.1522 5.76852C19.9906 6.60128 20.4764 7.7167 20.5115 8.88904C20.5466 10.0614 20.1282 11.2031 19.3411 12.083H19.4291Z" fill="currentColor"/>
</symbol>

<symbol id="home-tab" width="100%" height="100%" viewBox="0 0 24 24" fill="none">
<path d="M21.7777 7.61841L14.4445 1.83932C13.7722 1.29882 12.9019 1 12 1C11.0981 1 10.2279 1.29882 9.55561 1.83932L2.22233 7.61841C1.83412 7.93051 1.52432 8.31339 1.31358 8.74153C1.10284 9.16967 0.995976 9.63327 1.00012 10.1014V19.7039C1.00012 20.5781 1.38642 21.4165 2.07405 22.0346C2.76168 22.6527 3.6943 23 4.66676 23H19.3333C20.3058 23 21.2384 22.6527 21.926 22.0346C22.6137 21.4165 23 20.5781 23 19.7039V10.0904C23.0024 9.62413 22.8947 9.16265 22.684 8.73652C22.4733 8.31038 22.1644 7.92929 21.7777 7.61841ZM14.4445 20.8026H9.55561V15.3092C9.55561 15.0178 9.68438 14.7384 9.91359 14.5323C10.1428 14.3263 10.4537 14.2105 10.7778 14.2105H13.2222C13.5464 14.2105 13.8573 14.3263 14.0865 14.5323C14.3157 14.7384 14.4445 15.0178 14.4445 15.3092V20.8026ZM20.5555 19.7039C20.5555 19.9953 20.4268 20.2748 20.1976 20.4808C19.9683 20.6869 19.6575 20.8026 19.3333 20.8026H16.8889V15.3092C16.8889 14.435 16.5026 13.5967 15.815 12.9785C15.1273 12.3604 14.1947 12.0131 13.2222 12.0131H10.7778C9.80537 12.0131 8.87275 12.3604 8.18512 12.9785C7.49749 13.5967 7.11118 14.435 7.11118 15.3092V20.8026H4.66676C4.34261 20.8026 4.03173 20.6869 3.80252 20.4808C3.57331 20.2748 3.44454 19.9953 3.44454 19.7039V10.0904C3.44476 9.93445 3.48193 9.78028 3.55359 9.63821C3.62524 9.49613 3.72972 9.36939 3.8601 9.26643L11.1934 3.49834C11.4164 3.3222 11.7032 3.22505 12 3.22505C12.2969 3.22505 12.5837 3.3222 12.8067 3.49834L20.14 9.26643C20.2704 9.36939 20.3748 9.49613 20.4465 9.63821C20.5181 9.78028 20.5553 9.93445 20.5555 10.0904V19.7039Z" fill="currentColor"/>
</symbol>

<symbol id="shopping-cart-tab" width="100%" height="100%" viewBox="0 0 24 24" fill="none">
<path d="M8.22222 19.6842C7.89259 19.6842 7.57035 19.7814 7.29627 19.9636C7.02219 20.1458 6.80857 20.4047 6.68242 20.7077C6.55628 21.0106 6.52327 21.3439 6.58758 21.6655C6.65189 21.9871 6.81062 22.2826 7.04371 22.5144C7.2768 22.7463 7.57377 22.9042 7.89707 22.9681C8.22037 23.0321 8.55548 22.9993 8.86003 22.8738C9.16457 22.7483 9.42487 22.5358 9.60801 22.2632C9.79114 21.9905 9.88889 21.67 9.88889 21.3421C9.88889 20.9024 9.71329 20.4807 9.40073 20.1698C9.08817 19.8589 8.66425 19.6842 8.22222 19.6842ZM19.8889 16.3684H6.55556C6.26087 16.3684 5.97826 16.252 5.76988 16.0447C5.56151 15.8374 5.44444 15.5563 5.44444 15.2632C5.44444 14.97 5.56151 14.6889 5.76988 14.4816C5.97826 14.2743 6.26087 14.1579 6.55556 14.1579H15.9902C16.714 14.1556 17.4176 13.92 17.9955 13.4864C18.5733 13.0529 18.9944 12.4447 19.1956 11.7531L20.9571 5.61963C21.0044 5.45513 21.0126 5.28197 20.9812 5.11377C20.9497 4.94558 20.8795 4.78694 20.7759 4.65035C20.6724 4.51375 20.5384 4.40293 20.3844 4.32661C20.2305 4.25029 20.0609 4.21055 19.8889 4.21053H6.26563C6.03562 3.56655 5.6116 3.00878 5.05136 2.61322C4.49112 2.21765 3.8219 2.00352 3.13488 2H2.11111C1.81643 2 1.53381 2.11645 1.32544 2.32372C1.11706 2.531 1 2.81213 1 3.10526C1 3.3984 1.11706 3.67952 1.32544 3.8868C1.53381 4.09408 1.81643 4.21053 2.11111 4.21053H3.13488C3.37608 4.21136 3.61052 4.2899 3.8031 4.43438C3.99567 4.57885 4.13602 4.78149 4.20312 5.01195L4.37592 5.61403L4.37619 5.61963L6.19911 11.9663C5.35085 12.057 4.56986 12.4679 4.01696 13.1142C3.46406 13.7606 3.18135 14.5932 3.22703 15.4406C3.27271 16.2881 3.64331 17.0859 4.26251 17.6697C4.88172 18.2535 5.7024 18.5789 6.55556 18.5789H19.8889C20.1836 18.5789 20.4662 18.4625 20.6746 18.2552C20.8829 18.0479 21 17.7668 21 17.4737C21 17.1805 20.8829 16.8994 20.6746 16.6921C20.4662 16.4849 20.1836 16.3684 19.8889 16.3684ZM18.4159 6.42105L17.059 11.1454C16.992 11.3761 16.8516 11.5789 16.6589 11.7235C16.4662 11.8681 16.2316 11.9466 15.9902 11.9474H8.50488L8.22161 10.9612L6.91824 6.42105H18.4159ZM17.1111 19.6842C16.7815 19.6842 16.4592 19.7814 16.1852 19.9636C15.9111 20.1458 15.6975 20.4047 15.5713 20.7077C15.4452 21.0106 15.4122 21.3439 15.4765 21.6655C15.5408 21.9871 15.6995 22.2826 15.9326 22.5144C16.1657 22.7463 16.4627 22.9042 16.786 22.9681C17.1093 23.0321 17.4444 22.9993 17.7489 22.8738C18.0535 22.7483 18.3138 22.5358 18.4969 22.2632C18.68 21.9905 18.7778 21.67 18.7778 21.3421C18.7778 20.9024 18.6022 20.4807 18.2896 20.1698C17.9771 19.8589 17.5531 19.6842 17.1111 19.6842Z" fill="currentColor"/>
</symbol>

<symbol id="user-tab" width="100%" height="100%" viewBox="0 0 24 24" fill="none">
<path d="M16.0848 12.7803C17.1685 11.9323 17.9596 10.7694 18.3478 9.45351C18.7361 8.13759 18.7023 6.73403 18.2512 5.4381C17.8 4.14217 16.9539 3.01831 15.8306 2.22288C14.7073 1.42745 13.3626 1 11.9836 1C10.6046 1 9.25995 1.42745 8.13662 2.22288C7.0133 3.01831 6.1672 4.14217 5.71604 5.4381C5.26488 6.73403 5.23109 8.13759 5.61937 9.45351C6.00765 10.7694 6.7987 11.9323 7.88245 12.7803C6.02541 13.5202 4.40508 14.7474 3.1942 16.3311C1.98331 17.9148 1.22727 19.7956 1.00667 21.7731C0.990699 21.9174 1.00348 22.0635 1.04428 22.203C1.08508 22.3424 1.1531 22.4725 1.24446 22.5859C1.42896 22.8147 1.69732 22.9613 1.9905 22.9934C2.28368 23.0254 2.57766 22.9404 2.80778 22.7569C3.03789 22.5734 3.18528 22.3065 3.21753 22.0149C3.46027 19.8659 4.49064 17.8811 6.11179 16.4398C7.73294 14.9985 9.83122 14.2018 12.0057 14.2018C14.1802 14.2018 16.2785 14.9985 17.8996 16.4398C19.5208 17.8811 20.5512 19.8659 20.7939 22.0149C20.8239 22.2851 20.9536 22.5345 21.1577 22.7152C21.3618 22.8959 21.626 22.995 21.8993 22.9934H22.0209C22.3107 22.9602 22.5755 22.8145 22.7578 22.588C22.94 22.3615 23.0248 22.0725 22.9937 21.7841C22.7721 19.801 22.0119 17.9154 20.7948 16.3292C19.5777 14.7431 17.9495 13.5163 16.0848 12.7803ZM11.9836 11.9997C11.1091 11.9997 10.2542 11.7418 9.52703 11.2586C8.79988 10.7754 8.23313 10.0886 7.89846 9.28508C7.56379 8.48154 7.47623 7.59736 7.64684 6.74434C7.81745 5.89131 8.23858 5.10776 8.85697 4.49276C9.47536 3.87776 10.2632 3.45895 11.121 3.28927C11.9787 3.11959 12.8678 3.20668 13.6757 3.53951C14.4837 3.87234 15.1743 4.43598 15.6601 5.15914C16.146 5.8823 16.4053 6.7325 16.4053 7.60224C16.4053 8.76852 15.9395 9.88703 15.1102 10.7117C14.281 11.5364 13.1563 11.9997 11.9836 11.9997Z" fill="currentColor"/>
</symbol>

<symbol id="circle-tab" width="100%" height="100%" viewBox="0 0 6 6" fill="none">
    <circle cx="3" cy="3" r="3" fill="currentColor"/>
</symbol>

</svg>
