<svg width="24" height="24" viewBox="0 0 24 24" fill="none" xmlns="http://www.w3.org/2000/svg" id="telegram">
<path fill-rule="evenodd" clip-rule="evenodd" d="M19.5881 2.10307C18.2987 2.33244 16.5549 2.91093 14.086 3.7339L8.50757 5.59338C6.52355 6.25472 5.09508 6.73172 4.08804 7.16003C3.02709 7.61127 2.69312 7.91024 2.59724 8.07517C2.24623 8.67894 2.24623 9.42464 2.59724 10.0284C2.69312 10.1933 3.02709 10.4923 4.08804 10.9436C5.09508 11.3719 6.52355 11.8489 8.50757 12.5102C8.54142 12.5215 8.57491 12.5326 8.60803 12.5436C9.14098 12.7208 9.58004 12.8668 9.95887 13.1204C10.3233 13.3643 10.6363 13.6774 10.8803 14.0418C11.1339 14.4206 11.2799 14.8597 11.457 15.3926C11.468 15.4258 11.4792 15.4592 11.4905 15.4931C12.1518 17.4771 12.6288 18.9056 13.0571 19.9126C13.5084 20.9736 13.8073 21.3075 13.9723 21.4034C14.576 21.7544 15.3217 21.7544 15.9255 21.4034C16.0904 21.3075 16.3894 20.9736 16.8406 19.9126C17.269 18.9056 17.7459 17.4771 18.4073 15.4931L20.2668 9.91466C21.0897 7.44575 21.6682 5.70198 21.8976 4.41256C22.1283 3.11589 21.9403 2.62346 21.6588 2.3419C21.3772 2.06035 20.8848 1.8724 19.5881 2.10307ZM19.2378 0.133978C20.6993 -0.126011 22.0683 -0.0769618 23.073 0.927691C24.0776 1.93234 24.1267 3.30133 23.8667 4.76284C23.6085 6.21416 22.9807 8.09744 22.1926 10.4617L20.2888 16.1731C19.6467 18.0995 19.1448 19.6051 18.6811 20.6954C18.2365 21.7408 17.727 22.6695 16.9307 23.1325C15.7055 23.8448 14.1923 23.8448 12.9671 23.1325C12.1707 22.6695 11.6613 21.7408 11.2167 20.6954C10.7529 19.6051 10.2511 18.0996 9.60901 16.1733L9.5931 16.1256C9.36495 15.4411 9.30235 15.2799 9.21834 15.1544C9.11984 15.0072 8.99343 14.8808 8.84628 14.7823C8.72078 14.6983 8.55957 14.6357 7.87511 14.4076L7.82746 14.3917C5.90113 13.7496 4.39556 13.2477 3.30526 12.784C2.25991 12.3394 1.33116 11.83 0.868191 11.0336C0.155915 9.80839 0.155916 8.29519 0.868192 7.06999C1.33116 6.27363 2.25991 5.76419 3.30526 5.31958C4.39555 4.85586 5.90111 4.35401 7.82742 3.71191L13.539 1.80805C15.9032 1.01994 17.7865 0.392156 19.2378 0.133978Z" fill="white"/>
<path fill-rule="evenodd" clip-rule="evenodd" d="M16.8611 8.55251L10.8497 14.4976L9.44336 13.0756L15.4547 7.13048C15.8474 6.74213 16.4805 6.74563 16.8689 7.13832C17.2572 7.531 17.2537 8.16416 16.8611 8.55251Z" fill="white"/>
</svg>
