<svg width="24" height="24" viewBox="0 0 24 24" fill="none" xmlns="http://www.w3.org/2000/svg" id="whatsapp">
<path fill-rule="evenodd" clip-rule="evenodd" d="M20.2532 3.74744C21.3287 4.82556 22.1724 6.08077 22.7609 7.47921C23.3677 8.92712 23.675 10.4662 23.6672 12.0521C23.6594 13.6302 23.3469 15.1589 22.7323 16.5964C22.1411 17.9844 21.2948 19.2292 20.2193 20.2943C19.1464 21.3594 17.8938 22.1927 16.5006 22.7735C15.0761 23.3646 13.5631 23.6667 12.0033 23.6667H11.9486C10.1413 23.6589 8.34705 23.2266 6.74291 22.4167H2.78202C2.12057 22.4167 1.58412 21.8802 1.58412 21.2188V17.2605C0.774231 15.6563 0.341945 13.862 0.334132 12.0547C0.32632 10.4766 0.628399 8.94275 1.22735 7.50004C1.80547 6.10681 2.64139 4.85681 3.70649 3.78129C4.77158 2.70577 6.01635 1.86202 7.40436 1.26827C8.84184 0.653687 10.3705 0.341187 11.9486 0.333374H12.0007C13.5683 0.333374 15.0892 0.638062 16.5214 1.23962C17.9225 1.82556 19.1776 2.67192 20.2532 3.74744ZM12.0007 21.6875C14.5787 21.6875 17.0006 20.6927 18.8261 18.8855C20.6594 17.0677 21.6776 14.6381 21.6932 12.0443C21.6984 10.7266 21.4458 9.45056 20.9406 8.24744C20.4537 7.08598 19.7506 6.04171 18.8573 5.14848C17.9615 4.25264 16.9199 3.55212 15.7584 3.06514C14.5683 2.56514 13.3053 2.31254 12.0033 2.31254H11.959C9.36266 2.32296 6.93301 3.33858 5.11532 5.17452C3.29503 7.01046 2.30286 9.44796 2.31327 12.0443C2.32109 13.6146 2.71171 15.1745 3.44607 16.5521L3.56326 16.7709V20.4375H7.22988L7.44863 20.5547C8.82621 21.2891 10.3861 21.6797 11.9564 21.6875H12.0007ZM15.2867 13.3568C15.5497 13.4506 16.9638 14.1433 17.2476 14.2891C17.2939 14.3116 17.3377 14.3324 17.379 14.3519C17.5911 14.4523 17.7357 14.5208 17.7945 14.6276C17.8648 14.7474 17.8648 15.323 17.6278 15.9948C17.3909 16.6693 16.2477 17.2787 15.693 17.362C14.7815 17.4974 14.068 17.4297 12.2451 16.6433C9.56083 15.4818 7.74809 12.891 7.39343 12.3842C7.3672 12.3467 7.34894 12.3206 7.3389 12.3073C7.33542 12.3026 7.3314 12.2971 7.32687 12.2909C7.14802 12.047 6.16965 10.7125 6.16965 9.33597C6.16965 8.01813 6.81664 7.32458 7.11654 7.0031C7.13785 6.98027 7.1574 6.95931 7.17484 6.94014C7.43786 6.65628 7.74775 6.58337 7.94046 6.58337C8.13316 6.58337 8.32327 6.58337 8.48993 6.59378C8.51117 6.59505 8.53337 6.59501 8.5564 6.59496C8.72261 6.59463 8.9322 6.59422 9.13576 7.08597C9.21595 7.27861 9.33348 7.5649 9.45711 7.86603C9.70284 8.46457 9.97265 9.12176 10.0212 9.21878C10.0941 9.36462 10.141 9.52868 10.0472 9.72139C9.80307 10.2085 9.55122 10.472 9.37252 10.659C9.14902 10.8928 9.03994 11.0069 9.20346 11.2891C10.3154 13.198 11.4222 13.8594 13.1097 14.7032C13.3935 14.8464 13.5628 14.823 13.7295 14.6302C13.9013 14.4349 14.4482 13.7917 14.6409 13.5026C14.831 13.211 15.0237 13.2578 15.2867 13.3568Z" fill="white"/>
</svg>
